<?xml version="1.0" encoding="utf-8"?>
<!-- Generator: Adobe Illustrator 18.0.0, SVG Export Plug-In . SVG Version: 6.00 Build 0)  -->
<!DOCTYPE svg PUBLIC "-//W3C//DTD SVG 1.1//EN" "http://www.w3.org/Graphics/SVG/1.1/DTD/svg11.dtd">
<svg version="1.1" id="Layer_1" xmlns="http://www.w3.org/2000/svg" xmlns:xlink="http://www.w3.org/1999/xlink" x="0px" y="0px"
	 viewBox="0 0 55 69.8" enable-background="new 0 0 55 69.8" xml:space="preserve">
<path fill-rule="evenodd" clip-rule="evenodd" fill="#737371" d="M47.9,6.3H36.6V5.5c0-0.8-0.8-1.4-1.7-1.4H20.4
	c-0.9,0-1.6,0.6-1.6,1.4v0.8H7.5C5.5,6.3,4,7.8,4,9.6v53.9c0,1.8,1.5,3.3,3.6,3.3h40.4c1.9,0,3.4-1.5,3.4-3.3V9.6
	C51.3,7.8,49.8,6.3,47.9,6.3L47.9,6.3z"/>
<path fill-rule="evenodd" clip-rule="evenodd" fill="#FFFFFF" d="M47.4,63.1H7.9V10h10.8v0.4c0,0.9,0.8,1.5,1.6,1.5H35
	c0.9,0,1.7-0.6,1.7-1.5V10h10.8V63.1z"/>
<path fill-rule="evenodd" clip-rule="evenodd" fill="#737371" d="M21.8,32.4c0-1.9-1.5-3.4-3.4-3.4c-1.9,0-3.4,1.5-3.4,3.4
	c0,1.9,1.5,3.4,3.4,3.4C20.2,35.9,21.8,34.4,21.8,32.4L21.8,32.4z"/>
<path fill-rule="evenodd" clip-rule="evenodd" fill="#70CAF2" d="M37.9,30.5H26.2c-1.1,0-1.9,0.9-1.9,1.9c0,1.1,0.8,2,1.9,2h11.7
	c1.1,0,2-0.9,2-2C39.9,31.4,39,30.5,37.9,30.5L37.9,30.5z"/>
<path fill-rule="evenodd" clip-rule="evenodd" fill="#737371" d="M21.8,42.9c0-1.9-1.5-3.4-3.4-3.4c-1.9,0-3.4,1.5-3.4,3.4
	c0,1.9,1.5,3.4,3.4,3.4C20.2,46.3,21.8,44.8,21.8,42.9L21.8,42.9z"/>
<path fill-rule="evenodd" clip-rule="evenodd" fill="#70CAF2" d="M37.9,41H26.2c-1.1,0-1.9,0.9-1.9,1.9c0,1.1,0.8,2,1.9,2h11.7
	c1.1,0,2-0.9,2-2C39.9,41.8,39,41,37.9,41L37.9,41z"/>
<path fill-rule="evenodd" clip-rule="evenodd" fill="#737371" d="M21.8,22.8c0-1.9-1.5-3.4-3.4-3.4c-1.9,0-3.4,1.5-3.4,3.4
	c0,1.9,1.5,3.4,3.4,3.4C20.2,26.2,21.8,24.7,21.8,22.8L21.8,22.8z"/>
<path fill-rule="evenodd" clip-rule="evenodd" fill="#737371" d="M21.8,53c0-1.9-1.5-3.4-3.4-3.4c-1.9,0-3.4,1.5-3.4,3.4
	c0,1.9,1.5,3.4,3.4,3.4C20.2,56.5,21.8,54.9,21.8,53L21.8,53z"/>
<path fill-rule="evenodd" clip-rule="evenodd" fill="#70CAF2" d="M37.9,51H26.2c-1.1,0-1.9,0.9-1.9,2c0,1,0.8,1.9,1.9,1.9h11.7
	c1.1,0,2-0.9,2-1.9C39.9,51.9,39,51,37.9,51L37.9,51z"/>
<path fill-rule="evenodd" clip-rule="evenodd" fill="#70CAF2" d="M37.9,20.8H26.2c-1.1,0-1.9,0.9-1.9,2c0,1,0.8,1.9,1.9,1.9h11.7
	c1.1,0,2-0.9,2-1.9C39.9,21.7,39,20.8,37.9,20.8L37.9,20.8z"/>
</svg>
