<?xml version="1.0" encoding="utf-8"?>
<!-- Generator: Adobe Illustrator 18.0.0, SVG Export Plug-In . SVG Version: 6.00 Build 0)  -->
<!DOCTYPE svg PUBLIC "-//W3C//DTD SVG 1.1//EN" "http://www.w3.org/Graphics/SVG/1.1/DTD/svg11.dtd">
<svg version="1.1" id="Layer_1" xmlns="http://www.w3.org/2000/svg" xmlns:xlink="http://www.w3.org/1999/xlink" x="0px" y="0px"
	 viewBox="0 0 68.5 69.4" enable-background="new 0 0 68.5 69.4" xml:space="preserve">
<g>
	<path fill="#4E4F50" d="M65.2,49.3h-6.1c-0.5,0-1,0.4-1,1V59H10v-8.7c0-0.5-0.4-1-1-1H2.9c-0.5,0-1,0.4-1,1v15.9c0,0.6,0.4,1,1,1
		h62.3c0.5,0,1-0.4,1-1V50.3C66.2,49.7,65.8,49.3,65.2,49.3z"/>
	<path fill="#4E4F50" d="M24.4,9h19.2c0.6,0,1.2-0.5,1.2-1.2V2.7c0-0.6-0.5-1.2-1.2-1.2H24.4c-0.6,0-1.2,0.5-1.2,1.2v5.2
		C23.3,8.5,23.8,9,24.4,9z"/>
	<path fill="#4E4F50" d="M20.9,38.1L32,51.2c0.9,1,3.1,1,4,0l11.1-13.1l11.1-13.1c0.9-1-0.2-2.3-2-2.3H44.6V11.9c0-0.5-0.4-1-1-1
		H24.1c-0.5,0-1,0.4-1,1v10.8H11.8c-1.8,0-2.9,1.3-2,2.3L20.9,38.1z"/>
</g>
</svg>
