<?xml version="1.0" encoding="UTF-8" standalone="no"?> <svg id="Layer_1" data-name="Layer 1" xmlns="http://www.w3.org/2000/svg" viewBox="0 0 128 128"><defs><style>.cls-1{fill:#3b4551;}.cls-2{fill:#2b77c0;}</style></defs><title>a</title><path class="cls-1" d="M119.72925,29.6178a2.63139,2.63139,0,0,0-3.0516,4.28766,15.215,15.215,0,0,1,2.79029,2.90544L64,74.62984,8.754,36.96236a20.699,20.699,0,0,1,2.94479-3.143,2.63092,2.63092,0,1,0-3.28673-4.10906c-.30966.2467-7.56668,6.14174-7.56668,13.896V112.0238A13.17269,13.17269,0,0,0,14.00261,125.181h99.99477a13.17269,13.17269,0,0,0,13.15721-13.15721V43.60633C127.15459,34.97705,120.03248,29.83238,119.72925,29.6178Z"/><path class="cls-2" d="M24.52838,39.65917A3.94654,3.94654,0,0,0,28.47554,35.712V10.71331H99.52446V35.712a3.94716,3.94716,0,1,0,7.89432,0V9.724a6.91317,6.91317,0,0,0-6.905-6.905H27.48618a6.91317,6.91317,0,0,0-6.905,6.905V35.712A3.94654,3.94654,0,0,0,24.52838,39.65917Z"/></svg>