<?xml version="1.0" encoding="UTF-8" standalone="no"?> <svg id="Layer_1" data-name="Layer 1" xmlns="http://www.w3.org/2000/svg" viewBox="0 0 128 128"><defs><style>.cls-1{fill:#3b4551;}.cls-2{fill:#2b77c0;}</style></defs><title>a</title><path class="cls-1" d="M122.66751,16.9188H24.77071a4.46314,4.46314,0,0,0-4.46517,4.46507v.0168a8.68035,8.68035,0,0,1,.94.8225,8.95229,8.95229,0,0,1,.90652,1.04084l.20143.30214,5.65979,8.80719,1.22249.84484L71.06692,64.03751a4.44,4.44,0,0,0,5.28757,0L118.20233,33.235V82.20013H76.85806L88.69237,89.821A8.92624,8.92624,0,0,1,90.136,91.13037h32.53155a4.46314,4.46314,0,0,0,4.46507-4.46517V21.38386A4.46312,4.46312,0,0,0,122.66751,16.9188ZM73.70225,54.889,34.27162,25.849h78.89487Z"/><path class="cls-2" d="M85.21414,94.545,65.69779,82.01325a3.4744,3.4744,0,0,0-4.94281.8433c-1.41756,2.09376-4.484,6.4451-5.04332,7.2382-1.0143.42283-9.0078,3.11656-22.35608-10.23162-.12008-.12008-.22673-.23616-.33492-.3507l-.28872-.30747-.29579-.27693c-.11444-.10829-.23063-.21495-.3506-.33492C18.72866,65.23623,21.43264,57.24027,21.85311,56.23622c.79156-.55776,5.14526-3.625,7.23892-5.0425a3.4727,3.4727,0,0,0,.86451-4.91228l-12.55283-19.547a3.00717,3.00717,0,0,0-.30511-.35531,3.12437,3.12437,0,0,0-4.3412-.08627c-2.82006,2.63021-8.9577,8.71754-9.93347,10.754a20.86056,20.86056,0,0,0-.87629,15.48118,88.21577,88.21577,0,0,0,21.301,34.58023c.153.153.30757.295.46125.43615.25419.23216.48328.46125.69433.69423.1419.1545.28318.30829.43615.46125a88.21184,88.21184,0,0,0,34.58023,21.301,20.86059,20.86059,0,0,0,15.48118-.87619c2.03639-.97588,8.12372-7.11341,10.754-9.93347a3.12576,3.12576,0,0,0-.44168-4.64631Z"/></svg>