<?xml version="1.0" encoding="iso-8859-1"?>
<!-- Generator: Adobe Illustrator 21.1.0, SVG Export Plug-In . SVG Version: 6.00 Build 0)  -->
<svg version="1.1" id="Layer_1" xmlns="http://www.w3.org/2000/svg" xmlns:xlink="http://www.w3.org/1999/xlink" x="0px" y="0px"
	 viewBox="0 0 100.75 100.75" style="enable-background:new 0 0 100.75 100.75;" xml:space="preserve">
<g>
	<path d="M91.764,59.834c-1.376-1.957-3.883-2.64-6.001-1.836c-0.087-0.859-0.37-1.688-0.879-2.413
		c-1.615-2.309-4.814-2.873-7.092-1.283l-0.845,0.552c-0.105-0.809-0.379-1.59-0.861-2.278c-1.619-2.305-4.817-2.869-7.131-1.254
		c-0.026,0.018-0.045,0.04-0.069,0.06c-0.01,0.008-0.022,0.009-0.032,0.018c-6.719,5.623-14.922,11.438-17.021,11.438
		c-1.554,0-6.284-2.649-10.083-4.778c-4.844-2.713-9.419-5.276-12.044-5.479c-4.929-0.358-19.973,8.375-21.675,9.374
		c-0.692,0.406-0.924,1.296-0.518,1.988c0.406,0.691,1.296,0.924,1.988,0.518c6.126-3.596,16.944-9.225,19.981-8.981
		c1.986,0.153,6.694,2.79,10.847,5.117c5.479,3.069,9.023,4.963,11.209,5.118c0.095,0.02,0.194,0.03,0.295,0.03h9.97
		c1.818,0,3.298,1.48,3.298,3.3c0,1.82-1.479,3.302-3.298,3.302c-0.014,0-0.027,0.004-0.041,0.004
		c-0.021,0.001-0.04-0.003-0.061-0.001c-0.098,0.008-9.844,0.686-13.863,0.016c-3.766-0.628-8.579-4.901-8.627-4.944
		c-0.598-0.537-1.517-0.485-2.051,0.113c-0.535,0.598-0.485,1.516,0.112,2.051c0.222,0.199,5.487,4.88,10.088,5.647
		c1.503,0.25,3.653,0.332,5.841,0.332c4.148,0,8.433-0.297,8.704-0.316c0.001,0,0.002,0,0.003,0
		c3.372-0.057,6.099-2.815,6.099-6.203c0-3.422-2.783-6.206-6.204-6.206h-3.405c4.91-3.1,10.57-7.747,12.243-9.145
		c1.001-0.682,2.371-0.437,3.065,0.551c0.339,0.484,0.469,1.072,0.365,1.656s-0.426,1.091-0.909,1.43
		c-0.025,0.018-0.045,0.04-0.069,0.059c-0.049,0.039-0.099,0.077-0.141,0.121c-0.026,0.027-0.047,0.057-0.071,0.085
		c-0.037,0.045-0.075,0.089-0.106,0.137c-0.021,0.033-0.037,0.068-0.055,0.102c-0.026,0.048-0.053,0.095-0.073,0.146
		c-0.015,0.038-0.024,0.078-0.036,0.117c-0.015,0.05-0.032,0.098-0.042,0.149c-0.008,0.042-0.01,0.085-0.014,0.127
		c-0.005,0.05-0.012,0.099-0.012,0.149c0,0.045,0.007,0.09,0.011,0.135c0.005,0.048,0.007,0.095,0.016,0.142
		c0.009,0.048,0.026,0.095,0.041,0.143c0.013,0.043,0.024,0.086,0.041,0.129c0.02,0.049,0.048,0.095,0.074,0.142
		c0.018,0.033,0.031,0.068,0.052,0.101c0.004,0.006,0.009,0.011,0.013,0.017c0.005,0.007,0.007,0.015,0.012,0.021
		c0.015,0.021,0.035,0.036,0.05,0.056c0.049,0.064,0.101,0.123,0.159,0.177c0.029,0.027,0.059,0.05,0.089,0.074
		c0.056,0.043,0.113,0.082,0.173,0.117c0.034,0.02,0.067,0.039,0.103,0.055c0.066,0.031,0.135,0.055,0.204,0.075
		c0.032,0.009,0.062,0.022,0.094,0.029c0.1,0.022,0.202,0.035,0.305,0.036c0.005,0,0.009,0.002,0.013,0.002
		c0.013,0,0.026-0.006,0.039-0.006c0.111-0.003,0.221-0.021,0.33-0.05c0.033-0.009,0.066-0.017,0.099-0.028
		c0.112-0.039,0.222-0.086,0.326-0.154l4.629-3.026c1.004-0.698,2.387-0.456,3.086,0.544c0.339,0.482,0.47,1.068,0.367,1.649
		c-0.103,0.584-0.427,1.092-0.912,1.432l-1.486,1.041c-0.657,0.461-0.816,1.367-0.356,2.024c0.283,0.403,0.733,0.619,1.191,0.619
		c0.288,0,0.579-0.085,0.833-0.263l1.462-1.025l2.695-1.767c1.002-0.699,2.387-0.457,3.085,0.537c0.7,1.003,0.454,2.389-0.548,3.088
		c-0.001,0.001-0.002,0.002-0.004,0.003C73.058,75.665,55.17,87.138,52.537,87.17c-1.957,0-6.281-2.578-10.097-4.852
		c-4.305-2.566-8.371-4.99-11.243-5.373c-5.734-0.761-14.563,5.884-15.551,6.645c-0.636,0.489-0.754,1.401-0.266,2.037
		c0.489,0.637,1.402,0.755,2.038,0.266c2.421-1.86,9.545-6.582,13.395-6.066c2.28,0.304,6.455,2.792,10.139,4.988
		c4.54,2.706,8.827,5.262,11.584,5.262c4.807,0,32.469-19.248,37.966-23.106c0.083-0.058,0.157-0.123,0.224-0.194
		C92.835,65.111,93.324,62.072,91.764,59.834z"/>
	<path d="M40.425,33.144c5.827,0,10.567-4.74,10.567-10.567S46.251,12.01,40.425,12.01S29.858,16.75,29.858,22.577
		S34.598,33.144,40.425,33.144z M40.425,14.916c4.225,0,7.661,3.437,7.661,7.661c0,4.224-3.437,7.661-7.661,7.661
		c-4.224,0-7.661-3.437-7.661-7.661C32.764,18.353,36.201,14.916,40.425,14.916z"/>
	<path d="M66.554,30.696c4.477,0,8.119-3.642,8.119-8.119s-3.643-8.119-8.119-8.119s-8.119,3.642-8.119,8.119
		S62.077,30.696,66.554,30.696z M66.554,17.364c2.874,0,5.213,2.338,5.213,5.213s-2.339,5.213-5.213,5.213s-5.213-2.338-5.213-5.213
		S63.68,17.364,66.554,17.364z"/>
	<path d="M42.535,45.189c0,5.826,4.74,10.566,10.565,10.566c5.826,0,10.566-4.74,10.566-10.566c0-5.826-4.74-10.566-10.566-10.566
		C47.275,34.623,42.535,39.363,42.535,45.189z M53.101,37.529c4.224,0,7.66,3.436,7.66,7.66s-3.437,7.66-7.66,7.66
		c-4.223,0-7.659-3.436-7.659-7.66S48.877,37.529,53.101,37.529z"/>
</g>
</svg>
