<?xml version="1.0" encoding="utf-8"?>
<!-- Generator: Adobe Illustrator 18.0.0, SVG Export Plug-In . SVG Version: 6.00 Build 0)  -->
<!DOCTYPE svg PUBLIC "-//W3C//DTD SVG 1.1//EN" "http://www.w3.org/Graphics/SVG/1.1/DTD/svg11.dtd">
<svg version="1.1" id="Layer_1" xmlns="http://www.w3.org/2000/svg" xmlns:xlink="http://www.w3.org/1999/xlink" x="0px" y="0px"
	 viewBox="0 0 88.7 94.3" enable-background="new 0 0 88.7 94.3" xml:space="preserve">
<g>
	<g>
		<g>
			<rect x="61.2" y="18.2" fill="#A18D81" width="11.9" height="4.5"/>
		</g>
		<rect x="3.3" y="22.7" fill="#F1EEDB" width="82.9" height="54.9"/>
		<rect x="3.3" y="69.7" fill="#DFC5B4" width="82.9" height="7.9"/>
		<rect x="35.3" y="62.2" fill="#DDD9C8" width="18.9" height="12.7"/>
		<g>
			<rect x="16.5" y="18.2" fill="#A18D81" width="11.9" height="4.5"/>
		</g>
		<g>
			<path opacity="0.1" fill="#1D1D1B" d="M28.4,18.2c-2,2.8-6.8,3.8-11.9,4.5h11.9V18.2z"/>
		</g>
		<g>
			<path opacity="0.1" fill="#1D1D1B" d="M73.1,18.2c-2,2.8-6.8,3.8-11.9,4.5h11.9V18.2z"/>
		</g>
		<rect x="26.7" y="74.9" fill="#DDD9C8" width="36.2" height="2.7"/>
		<rect x="26.7" y="53.1" fill="#DE4A37" width="36.2" height="6.7"/>
		<rect x="29.5" y="59.8" fill="#A18D81" width="2.5" height="15.2"/>
		<rect x="57.6" y="59.8" fill="#A18D81" width="2.5" height="15.2"/>
		<rect x="36.6" y="63.3" fill="#08AABA" width="7.4" height="11.6"/>
		<rect x="45.6" y="63.3" fill="#08AABA" width="7.4" height="11.6"/>
		<g>
			<rect x="7.5" y="26.7" fill="#DDD9C8" width="9" height="10.8"/>
			<rect x="8.5" y="27.6" fill="#08AABA" width="6.9" height="9"/>
			<rect x="8.1" y="30.1" fill="#DDD9C8" width="7.8" height="0.9"/>
		</g>
		<g>
			<rect x="73.1" y="26.7" fill="#DDD9C8" width="9" height="10.8"/>
			<rect x="74.1" y="27.6" fill="#08AABA" width="6.9" height="9"/>
			<rect x="73.7" y="30.1" fill="#DDD9C8" width="7.8" height="0.9"/>
		</g>
		<g>
			<rect x="20.5" y="26.7" fill="#DDD9C8" width="9" height="10.8"/>
			<rect x="21.6" y="27.6" fill="#08AABA" width="6.9" height="9"/>
			<rect x="21.1" y="30.1" fill="#DDD9C8" width="7.8" height="0.9"/>
		</g>
		<g>
			<rect x="60.1" y="26.7" fill="#DDD9C8" width="9" height="10.8"/>
			<rect x="61.1" y="27.6" fill="#08AABA" width="6.9" height="9"/>
			<rect x="60.7" y="30.1" fill="#DDD9C8" width="7.8" height="0.9"/>
		</g>
		<g>
			<rect x="33.5" y="26.7" fill="#DDD9C8" width="9" height="10.8"/>
			<rect x="34.6" y="27.6" fill="#08AABA" width="6.9" height="9"/>
			<rect x="34.1" y="30.1" fill="#DDD9C8" width="7.8" height="0.9"/>
		</g>
		<g>
			<rect x="47.1" y="26.7" fill="#DDD9C8" width="9" height="10.8"/>
			<rect x="48.1" y="27.6" fill="#08AABA" width="6.9" height="9"/>
			<rect x="47.7" y="30.1" fill="#DDD9C8" width="7.8" height="0.9"/>
		</g>
		<g>
			<rect x="7.5" y="40.3" fill="#DDD9C8" width="9" height="10.8"/>
			<rect x="8.5" y="41.2" fill="#08AABA" width="6.9" height="9"/>
			<rect x="8.1" y="43.8" fill="#DDD9C8" width="7.8" height="0.9"/>
		</g>
		<g>
			<rect x="73.1" y="40.3" fill="#DDD9C8" width="9" height="10.8"/>
			<rect x="74.1" y="41.2" fill="#08AABA" width="6.9" height="9"/>
			<rect x="73.7" y="43.8" fill="#DDD9C8" width="7.8" height="0.9"/>
		</g>
		<g>
			<rect x="20.5" y="40.3" fill="#DDD9C8" width="9" height="10.8"/>
			<rect x="21.6" y="41.2" fill="#08AABA" width="6.9" height="9"/>
			<rect x="21.1" y="43.8" fill="#DDD9C8" width="7.8" height="0.9"/>
		</g>
		<g>
			<rect x="60.1" y="40.3" fill="#DDD9C8" width="9" height="10.8"/>
			<rect x="61.1" y="41.2" fill="#08AABA" width="6.9" height="9"/>
			<rect x="60.7" y="43.8" fill="#DDD9C8" width="7.8" height="0.9"/>
		</g>
		<g>
			<rect x="33.5" y="40.3" fill="#DDD9C8" width="9" height="10.8"/>
			<rect x="34.6" y="41.2" fill="#08AABA" width="6.9" height="9"/>
			<rect x="34.1" y="43.8" fill="#DDD9C8" width="7.8" height="0.9"/>
		</g>
		<g>
			<rect x="47.1" y="40.3" fill="#DDD9C8" width="9" height="10.8"/>
			<rect x="48.1" y="41.2" fill="#08AABA" width="6.9" height="9"/>
			<rect x="47.7" y="43.8" fill="#DDD9C8" width="7.8" height="0.9"/>
		</g>
		<g>
			<rect x="7.5" y="53.9" fill="#DDD9C8" width="15.6" height="12.6"/>
			<rect x="8.4" y="54.8" fill="#08AABA" width="13.8" height="10.9"/>
			<rect x="8.1" y="57.4" fill="#DDD9C8" width="14.4" height="0.9"/>
		</g>
		<g>
			<rect x="66.5" y="53.9" fill="#DDD9C8" width="15.6" height="12.6"/>
			<rect x="67.4" y="54.8" fill="#08AABA" width="13.8" height="10.9"/>
			<rect x="67.1" y="57.4" fill="#DDD9C8" width="14.4" height="0.9"/>
		</g>
		<g>
			<path fill="#DE4A37" d="M48.2,25.1h-6.8c-1,0-1.9-0.8-1.9-1.9v-6.8c0-1,0.8-1.9,1.9-1.9h6.8c1,0,1.9,0.8,1.9,1.9v6.8
				C50.1,24.2,49.2,25.1,48.2,25.1z"/>
			<g>
				<rect x="43.7" y="15.9" fill="#F6F6F6" width="2.3" height="7.7"/>
				<rect x="40.9" y="18.6" fill="#F6F6F6" width="7.7" height="2.3"/>
			</g>
		</g>
		<g>
			<g>
				<path fill="#A18D81" d="M32.7,56.4h-1.6v1.9c0,0.1,0,0.1-0.1,0.2c-0.1,0-0.2,0.1-0.2,0.1c-0.1,0-0.2,0-0.2-0.1
					c-0.1,0-0.1-0.1-0.1-0.2v-4.2c0-0.1,0-0.1,0.1-0.2c0.1,0,0.2-0.1,0.2-0.1c0.1,0,0.2,0,0.2,0.1c0.1,0,0.1,0.1,0.1,0.2v1.8h1.6
					v-1.8c0-0.1,0-0.1,0.1-0.2c0.1,0,0.2-0.1,0.2-0.1c0.1,0,0.2,0,0.2,0.1c0.1,0,0.1,0.1,0.1,0.2v4.2c0,0.1,0,0.1-0.1,0.2
					c-0.1,0-0.2,0.1-0.2,0.1c-0.1,0-0.2,0-0.2-0.1c-0.1,0-0.1-0.1-0.1-0.2V56.4z"/>
				<path fill="#A18D81" d="M36.2,58.6c-0.2,0-0.4,0-0.6-0.1c-0.2-0.1-0.3-0.1-0.5-0.2c-0.1-0.1-0.2-0.3-0.3-0.4
					c-0.1-0.2-0.1-0.4-0.1-0.7v-1.8c0-0.3,0-0.5,0.1-0.7c0.1-0.2,0.2-0.3,0.3-0.4c0.1-0.1,0.3-0.2,0.5-0.2c0.2-0.1,0.4-0.1,0.6-0.1
					c0.2,0,0.4,0,0.6,0.1c0.2,0.1,0.3,0.1,0.5,0.2c0.1,0.1,0.2,0.3,0.3,0.4c0.1,0.2,0.1,0.4,0.1,0.7v1.8c0,0.3,0,0.5-0.1,0.7
					c-0.1,0.2-0.2,0.3-0.3,0.4c-0.1,0.1-0.3,0.2-0.5,0.2C36.6,58.6,36.4,58.6,36.2,58.6z M37,55.4c0-0.3-0.1-0.5-0.2-0.6
					c-0.1-0.1-0.3-0.2-0.6-0.2c-0.3,0-0.4,0.1-0.6,0.2c-0.1,0.1-0.2,0.3-0.2,0.6v1.8c0,0.3,0.1,0.5,0.2,0.6c0.1,0.1,0.3,0.2,0.6,0.2
					c0.2,0,0.4-0.1,0.6-0.2c0.1-0.1,0.2-0.3,0.2-0.6V55.4z"/>
				<path fill="#A18D81" d="M40.1,58c0.2,0,0.4-0.1,0.6-0.2c0.2-0.1,0.2-0.3,0.2-0.5c0-0.2-0.1-0.3-0.2-0.4
					c-0.1-0.1-0.2-0.2-0.4-0.3c-0.2-0.1-0.3-0.2-0.5-0.2c-0.2-0.1-0.4-0.2-0.5-0.3c-0.2-0.1-0.3-0.2-0.4-0.4
					c-0.1-0.2-0.2-0.4-0.2-0.6c0-0.2,0-0.4,0.1-0.6c0.1-0.2,0.2-0.3,0.4-0.4c0.1-0.1,0.3-0.2,0.5-0.2c0.2,0,0.4-0.1,0.5-0.1
					c0.1,0,0.2,0,0.4,0c0.1,0,0.3,0,0.4,0.1c0.1,0,0.2,0.1,0.3,0.1c0.1,0.1,0.1,0.1,0.1,0.2c0,0,0,0.1,0,0.1c0,0,0,0.1-0.1,0.1
					c0,0-0.1,0.1-0.1,0.1c0,0-0.1,0-0.1,0c0,0-0.1,0-0.1,0c0,0-0.1-0.1-0.2-0.1c-0.1,0-0.1-0.1-0.2-0.1c-0.1,0-0.2,0-0.4,0
					c-0.2,0-0.4,0-0.6,0.1c-0.2,0.1-0.2,0.2-0.2,0.4c0,0.2,0.1,0.3,0.2,0.4c0.1,0.1,0.2,0.2,0.4,0.2c0.2,0.1,0.3,0.1,0.5,0.2
					c0.2,0.1,0.4,0.2,0.5,0.3c0.2,0.1,0.3,0.3,0.4,0.4c0.1,0.2,0.2,0.4,0.2,0.7c0,0.2,0,0.4-0.1,0.6c-0.1,0.2-0.2,0.3-0.3,0.4
					c-0.1,0.1-0.3,0.2-0.5,0.3c-0.2,0.1-0.4,0.1-0.6,0.1c-0.2,0-0.4,0-0.6-0.1c-0.2,0-0.3-0.1-0.5-0.2c-0.1-0.1-0.2-0.2-0.3-0.2
					c-0.1-0.1-0.1-0.2-0.1-0.3c0,0,0-0.1,0-0.1c0,0,0-0.1,0.1-0.1c0,0,0.1-0.1,0.1-0.1c0,0,0.1,0,0.1,0c0.1,0,0.1,0,0.2,0.1
					c0.1,0.1,0.1,0.1,0.2,0.2c0.1,0.1,0.2,0.1,0.3,0.2C39.8,58,39.9,58,40.1,58z"/>
				<path fill="#A18D81" d="M42.8,54.2c0-0.1,0-0.1,0.1-0.2c0,0,0.1-0.1,0.2-0.1h1.3c0.2,0,0.4,0,0.6,0.1c0.2,0,0.3,0.1,0.5,0.2
					c0.1,0.1,0.2,0.3,0.3,0.4c0.1,0.2,0.1,0.4,0.1,0.6v0.1c0,0.3,0,0.5-0.1,0.6c-0.1,0.2-0.2,0.3-0.3,0.4c-0.1,0.1-0.3,0.2-0.5,0.2
					c-0.2,0.1-0.4,0.1-0.6,0.1h-0.8v1.6c0,0.1,0,0.1-0.1,0.2c-0.1,0-0.2,0.1-0.2,0.1c-0.1,0-0.2,0-0.2-0.1c-0.1,0-0.1-0.1-0.1-0.2
					V54.2z M43.5,54.5v1.7h0.8c0.2,0,0.4-0.1,0.6-0.2c0.1-0.1,0.2-0.3,0.2-0.6v-0.1c0-0.3-0.1-0.5-0.2-0.6c-0.1-0.1-0.3-0.2-0.6-0.2
					H43.5z"/>
				<path fill="#A18D81" d="M46.8,54.2c0-0.1,0-0.1,0.1-0.2c0.1,0,0.2-0.1,0.2-0.1c0.1,0,0.2,0,0.2,0.1c0.1,0,0.1,0.1,0.1,0.2v4.2
					c0,0.1,0,0.1-0.1,0.2c-0.1,0-0.2,0.1-0.2,0.1c-0.1,0-0.2,0-0.2-0.1c-0.1,0-0.1-0.1-0.1-0.2V54.2z"/>
				<path fill="#A18D81" d="M51.5,53.9c0.1,0,0.1,0,0.2,0.1c0,0.1,0.1,0.1,0.1,0.2c0,0.1,0,0.2-0.1,0.2c0,0.1-0.1,0.1-0.2,0.1h-1
					v3.8c0,0.1,0,0.1-0.1,0.2c-0.1,0-0.2,0.1-0.2,0.1c-0.1,0-0.2,0-0.2-0.1c-0.1,0-0.1-0.1-0.1-0.2v-3.8h-1c-0.1,0-0.1,0-0.2-0.1
					c0-0.1-0.1-0.1-0.1-0.2c0-0.1,0-0.1,0.1-0.2c0-0.1,0.1-0.1,0.2-0.1H51.5z"/>
				<path fill="#A18D81" d="M52.4,58.6c0,0-0.1,0-0.1,0c-0.1,0-0.1,0-0.1-0.1c0,0-0.1-0.1-0.1-0.1c0,0,0-0.1,0-0.1c0,0,0,0,0-0.1
					l1.3-4.1c0-0.1,0.1-0.1,0.2-0.2c0.1,0,0.2-0.1,0.3-0.1c0.1,0,0.2,0,0.3,0.1c0.1,0,0.1,0.1,0.2,0.2l1.3,4.1c0,0,0,0,0,0.1
					c0,0,0,0.1,0,0.1c0,0-0.1,0.1-0.1,0.1c0,0-0.1,0-0.1,0.1c-0.1,0-0.1,0-0.2,0c-0.1,0-0.1,0-0.1,0c0,0-0.1-0.1-0.1-0.1l-0.3-0.9
					h-1.6l-0.3,0.9c0,0.1,0,0.1-0.1,0.1C52.5,58.6,52.4,58.6,52.4,58.6z M54.4,57l-0.7-2.2L53,57H54.4z"/>
				<path fill="#A18D81" d="M56.7,58.6c-0.1,0-0.1,0-0.2-0.1c-0.1,0-0.1-0.1-0.1-0.2v-4.2c0-0.1,0-0.1,0.1-0.2
					c0.1,0,0.2-0.1,0.2-0.1c0.1,0,0.2,0,0.2,0.1c0.1,0,0.1,0.1,0.1,0.2V58h1.7c0.1,0,0.1,0,0.2,0.1c0,0.1,0.1,0.1,0.1,0.2
					c0,0.1,0,0.1-0.1,0.2c0,0.1-0.1,0.1-0.2,0.1H56.7z"/>
			</g>
			<g>
				<path fill="#FFFFFF" d="M32.7,56.4h-1.6v1.9c0,0.1,0,0.1-0.1,0.2c-0.1,0-0.2,0.1-0.2,0.1c-0.1,0-0.2,0-0.2-0.1
					c-0.1,0-0.1-0.1-0.1-0.2v-4.2c0-0.1,0-0.1,0.1-0.2c0.1,0,0.2-0.1,0.2-0.1c0.1,0,0.2,0,0.2,0.1c0.1,0,0.1,0.1,0.1,0.2v1.8h1.6
					v-1.8c0-0.1,0-0.1,0.1-0.2c0.1,0,0.2-0.1,0.2-0.1c0.1,0,0.2,0,0.2,0.1c0.1,0,0.1,0.1,0.1,0.2v4.2c0,0.1,0,0.1-0.1,0.2
					c-0.1,0-0.2,0.1-0.2,0.1c-0.1,0-0.2,0-0.2-0.1c-0.1,0-0.1-0.1-0.1-0.2V56.4z"/>
				<path fill="#FFFFFF" d="M36.2,58.6c-0.2,0-0.4,0-0.6-0.1c-0.2-0.1-0.3-0.1-0.5-0.2c-0.1-0.1-0.2-0.3-0.3-0.4
					c-0.1-0.2-0.1-0.4-0.1-0.7v-1.8c0-0.3,0-0.5,0.1-0.7c0.1-0.2,0.2-0.3,0.3-0.4c0.1-0.1,0.3-0.2,0.5-0.2c0.2-0.1,0.4-0.1,0.6-0.1
					c0.2,0,0.4,0,0.6,0.1c0.2,0.1,0.3,0.1,0.5,0.2c0.1,0.1,0.2,0.3,0.3,0.4c0.1,0.2,0.1,0.4,0.1,0.7v1.8c0,0.3,0,0.5-0.1,0.7
					c-0.1,0.2-0.2,0.3-0.3,0.4c-0.1,0.1-0.3,0.2-0.5,0.2C36.6,58.6,36.4,58.6,36.2,58.6z M37,55.4c0-0.3-0.1-0.5-0.2-0.6
					c-0.1-0.1-0.3-0.2-0.6-0.2c-0.3,0-0.4,0.1-0.6,0.2c-0.1,0.1-0.2,0.3-0.2,0.6v1.8c0,0.3,0.1,0.5,0.2,0.6c0.1,0.1,0.3,0.2,0.6,0.2
					c0.2,0,0.4-0.1,0.6-0.2c0.1-0.1,0.2-0.3,0.2-0.6V55.4z"/>
				<path fill="#FFFFFF" d="M40.1,58c0.2,0,0.4-0.1,0.6-0.2c0.2-0.1,0.2-0.3,0.2-0.5c0-0.2-0.1-0.3-0.2-0.4
					c-0.1-0.1-0.2-0.2-0.4-0.3c-0.2-0.1-0.3-0.2-0.5-0.2c-0.2-0.1-0.4-0.2-0.5-0.3c-0.2-0.1-0.3-0.2-0.4-0.4
					c-0.1-0.2-0.2-0.4-0.2-0.6c0-0.2,0-0.4,0.1-0.6c0.1-0.2,0.2-0.3,0.4-0.4c0.1-0.1,0.3-0.2,0.5-0.2c0.2,0,0.4-0.1,0.5-0.1
					c0.1,0,0.2,0,0.4,0c0.1,0,0.3,0,0.4,0.1c0.1,0,0.2,0.1,0.3,0.1c0.1,0.1,0.1,0.1,0.1,0.2c0,0,0,0.1,0,0.1c0,0,0,0.1-0.1,0.1
					c0,0-0.1,0.1-0.1,0.1c0,0-0.1,0-0.1,0c0,0-0.1,0-0.1,0c0,0-0.1-0.1-0.2-0.1c-0.1,0-0.1-0.1-0.2-0.1c-0.1,0-0.2,0-0.4,0
					c-0.2,0-0.4,0-0.6,0.1c-0.2,0.1-0.2,0.2-0.2,0.4c0,0.2,0.1,0.3,0.2,0.4c0.1,0.1,0.2,0.2,0.4,0.2c0.2,0.1,0.3,0.1,0.5,0.2
					c0.2,0.1,0.4,0.2,0.5,0.3c0.2,0.1,0.3,0.3,0.4,0.4c0.1,0.2,0.2,0.4,0.2,0.7c0,0.2,0,0.4-0.1,0.6c-0.1,0.2-0.2,0.3-0.3,0.4
					c-0.1,0.1-0.3,0.2-0.5,0.3c-0.2,0.1-0.4,0.1-0.6,0.1c-0.2,0-0.4,0-0.6-0.1c-0.2,0-0.3-0.1-0.5-0.2c-0.1-0.1-0.2-0.2-0.3-0.2
					c-0.1-0.1-0.1-0.2-0.1-0.3c0,0,0-0.1,0-0.1c0,0,0-0.1,0.1-0.1c0,0,0.1-0.1,0.1-0.1c0,0,0.1,0,0.1,0c0.1,0,0.1,0,0.2,0.1
					c0.1,0.1,0.1,0.1,0.2,0.2c0.1,0.1,0.2,0.1,0.3,0.2C39.8,58,39.9,58,40.1,58z"/>
				<path fill="#FFFFFF" d="M42.8,54.2c0-0.1,0-0.1,0.1-0.2c0,0,0.1-0.1,0.2-0.1h1.3c0.2,0,0.4,0,0.6,0.1c0.2,0,0.3,0.1,0.5,0.2
					c0.1,0.1,0.2,0.3,0.3,0.4c0.1,0.2,0.1,0.4,0.1,0.6v0.1c0,0.3,0,0.5-0.1,0.6c-0.1,0.2-0.2,0.3-0.3,0.4c-0.1,0.1-0.3,0.2-0.5,0.2
					c-0.2,0.1-0.4,0.1-0.6,0.1h-0.8v1.6c0,0.1,0,0.1-0.1,0.2c-0.1,0-0.2,0.1-0.2,0.1c-0.1,0-0.2,0-0.2-0.1c-0.1,0-0.1-0.1-0.1-0.2
					V54.2z M43.5,54.5v1.7h0.8c0.2,0,0.4-0.1,0.6-0.2c0.1-0.1,0.2-0.3,0.2-0.6v-0.1c0-0.3-0.1-0.5-0.2-0.6c-0.1-0.1-0.3-0.2-0.6-0.2
					H43.5z"/>
				<path fill="#FFFFFF" d="M46.8,54.2c0-0.1,0-0.1,0.1-0.2c0.1,0,0.2-0.1,0.2-0.1c0.1,0,0.2,0,0.2,0.1c0.1,0,0.1,0.1,0.1,0.2v4.2
					c0,0.1,0,0.1-0.1,0.2c-0.1,0-0.2,0.1-0.2,0.1c-0.1,0-0.2,0-0.2-0.1c-0.1,0-0.1-0.1-0.1-0.2V54.2z"/>
				<path fill="#FFFFFF" d="M51.5,53.9c0.1,0,0.1,0,0.2,0.1c0,0.1,0.1,0.1,0.1,0.2c0,0.1,0,0.2-0.1,0.2c0,0.1-0.1,0.1-0.2,0.1h-1
					v3.8c0,0.1,0,0.1-0.1,0.2c-0.1,0-0.2,0.1-0.2,0.1c-0.1,0-0.2,0-0.2-0.1c-0.1,0-0.1-0.1-0.1-0.2v-3.8h-1c-0.1,0-0.1,0-0.2-0.1
					c0-0.1-0.1-0.1-0.1-0.2c0-0.1,0-0.1,0.1-0.2c0-0.1,0.1-0.1,0.2-0.1H51.5z"/>
				<path fill="#FFFFFF" d="M52.4,58.6c0,0-0.1,0-0.1,0c-0.1,0-0.1,0-0.1-0.1c0,0-0.1-0.1-0.1-0.1c0,0,0-0.1,0-0.1c0,0,0,0,0-0.1
					l1.3-4.1c0-0.1,0.1-0.1,0.2-0.2c0.1,0,0.2-0.1,0.3-0.1c0.1,0,0.2,0,0.3,0.1c0.1,0,0.1,0.1,0.2,0.2l1.3,4.1c0,0,0,0,0,0.1
					c0,0,0,0.1,0,0.1c0,0-0.1,0.1-0.1,0.1c0,0-0.1,0-0.1,0.1c-0.1,0-0.1,0-0.2,0c-0.1,0-0.1,0-0.1,0c0,0-0.1-0.1-0.1-0.1l-0.3-0.9
					h-1.6l-0.3,0.9c0,0.1,0,0.1-0.1,0.1C52.5,58.6,52.4,58.6,52.4,58.6z M54.4,57l-0.7-2.2L53,57H54.4z"/>
				<path fill="#FFFFFF" d="M56.7,58.6c-0.1,0-0.1,0-0.2-0.1c-0.1,0-0.1-0.1-0.1-0.2v-4.2c0-0.1,0-0.1,0.1-0.2
					c0.1,0,0.2-0.1,0.2-0.1c0.1,0,0.2,0,0.2,0.1c0.1,0,0.1,0.1,0.1,0.2V58h1.7c0.1,0,0.1,0,0.2,0.1c0,0.1,0.1,0.1,0.1,0.2
					c0,0.1,0,0.1-0.1,0.2c0,0.1-0.1,0.1-0.2,0.1H56.7z"/>
			</g>
		</g>
		<path opacity="0.15" fill="#1D1D1B" d="M49.4,15c0.1,0.4,0.1,0.7,0.1,1.1c0,4.4-3.6,8-8,8c-0.6,0-1.3-0.1-1.9-0.2
			c0.3,0.7,0.9,1.2,1.7,1.2h6.8c1,0,1.9-0.8,1.9-1.9v-6.8C50,15.8,49.8,15.3,49.4,15z"/>
		<path opacity="0.15" fill="#1D1D1B" d="M33.2,58.9c-2.2,0-4.4-0.1-6.5-0.2v1.1h36.2v-6.5C57,56.6,45.9,58.9,33.2,58.9z"/>
		<path opacity="0.1" fill="#1D1D1B" d="M7.5,37.4h9V26.7C15.6,31.9,13.4,36.1,7.5,37.4z"/>
		<path opacity="0.1" fill="#1D1D1B" d="M20.5,37.4h9V26.7C28.6,31.9,26.5,36.1,20.5,37.4z"/>
		<path opacity="0.1" fill="#1D1D1B" d="M33.5,37.4h9V26.7C41.6,31.9,39.5,36.1,33.5,37.4z"/>
		<path opacity="0.1" fill="#1D1D1B" d="M47.1,37.4h9V26.7C55.2,31.9,53,36.1,47.1,37.4z"/>
		<path opacity="0.1" fill="#1D1D1B" d="M60.1,37.4h9V26.7C68.2,31.9,66,36.1,60.1,37.4z"/>
		<path opacity="0.1" fill="#1D1D1B" d="M7.5,51.1h9V40.3C15.6,45.5,13.4,49.7,7.5,51.1z"/>
		<path opacity="0.1" fill="#1D1D1B" d="M20.5,51.1h9V40.3C28.6,45.5,26.5,49.7,20.5,51.1z"/>
		<path opacity="0.1" fill="#1D1D1B" d="M33.5,51.1h9V40.3C41.6,45.5,39.5,49.7,33.5,51.1z"/>
		<path opacity="0.1" fill="#1D1D1B" d="M47.1,51.1h9V40.3C55.2,45.5,53,49.7,47.1,51.1z"/>
		<path opacity="0.1" fill="#1D1D1B" d="M60.1,51.1h9V40.3C68.2,45.5,66,49.7,60.1,51.1z"/>
		<path opacity="0.1" fill="#1D1D1B" d="M73.1,37.4h9V26.7C81.2,31.9,79,36.1,73.1,37.4z"/>
		<path opacity="0.1" fill="#1D1D1B" d="M73.1,51.1h9V40.3C81.2,45.5,79,49.7,73.1,51.1z"/>
		<path opacity="0.1" fill="#1D1D1B" d="M7.5,66.6h15.6V53.9C22.2,62,16.5,65.8,7.5,66.6z"/>
		<path opacity="0.1" fill="#1D1D1B" d="M66.5,66.6h15.6V53.9C81.2,62,75.5,65.8,66.5,66.6z"/>
		<polygon opacity="0.1" fill="#1D1D1B" points="60,61.5 29.6,61.5 26.7,59.8 62.9,59.8 		"/>
		<path opacity="0.1" fill="#1D1D1B" d="M44,74.9h-7.4c3.4-1.9,6.4-4.6,7.4-11.6V74.9z"/>
		<path opacity="0.1" fill="#1D1D1B" d="M53,74.9h-7.4c3.4-1.9,6.4-4.6,7.4-11.6V74.9z"/>
		<rect x="41.8" y="68.1" fill="#DDD9C8" width="1.5" height="2.1"/>
		<rect x="46.3" y="68.1" fill="#DDD9C8" width="1.5" height="2.1"/>
	</g>
	<g>
		<g>
			<rect x="61.2" y="18.2" fill="#A18D81" width="11.9" height="4.5"/>
		</g>
		<rect x="3.3" y="22.7" fill="#F1EEDB" width="82.9" height="54.9"/>
		<rect x="3.3" y="69.7" fill="#DFC5B4" width="82.9" height="7.9"/>
		<rect x="35.3" y="62.2" fill="#DDD9C8" width="18.9" height="12.7"/>
		<g>
			<rect x="16.5" y="18.2" fill="#A18D81" width="11.9" height="4.5"/>
		</g>
		<g>
			<path opacity="0.1" fill="#1D1D1B" d="M28.4,18.2c-2,2.8-6.8,3.8-11.9,4.5h11.9V18.2z"/>
		</g>
		<g>
			<path opacity="0.1" fill="#1D1D1B" d="M73.1,18.2c-2,2.8-6.8,3.8-11.9,4.5h11.9V18.2z"/>
		</g>
		<rect x="26.7" y="74.9" fill="#DDD9C8" width="36.2" height="2.7"/>
		<rect x="26.7" y="53.1" fill="#DE4A37" width="36.2" height="6.7"/>
		<rect x="29.5" y="59.8" fill="#A18D81" width="2.5" height="15.2"/>
		<rect x="57.6" y="59.8" fill="#A18D81" width="2.5" height="15.2"/>
		<rect x="36.6" y="63.3" fill="#08AABA" width="7.4" height="11.6"/>
		<rect x="45.6" y="63.3" fill="#08AABA" width="7.4" height="11.6"/>
		<g>
			<rect x="7.5" y="26.7" fill="#DDD9C8" width="9" height="10.8"/>
			<rect x="8.5" y="27.6" fill="#08AABA" width="6.9" height="9"/>
			<rect x="8.1" y="30.1" fill="#DDD9C8" width="7.8" height="0.9"/>
		</g>
		<g>
			<rect x="73.1" y="26.7" fill="#DDD9C8" width="9" height="10.8"/>
			<rect x="74.1" y="27.6" fill="#08AABA" width="6.9" height="9"/>
			<rect x="73.7" y="30.1" fill="#DDD9C8" width="7.8" height="0.9"/>
		</g>
		<g>
			<rect x="20.5" y="26.7" fill="#DDD9C8" width="9" height="10.8"/>
			<rect x="21.6" y="27.6" fill="#08AABA" width="6.9" height="9"/>
			<rect x="21.1" y="30.1" fill="#DDD9C8" width="7.8" height="0.9"/>
		</g>
		<g>
			<rect x="60.1" y="26.7" fill="#DDD9C8" width="9" height="10.8"/>
			<rect x="61.1" y="27.6" fill="#08AABA" width="6.9" height="9"/>
			<rect x="60.7" y="30.1" fill="#DDD9C8" width="7.8" height="0.9"/>
		</g>
		<g>
			<rect x="33.5" y="26.7" fill="#DDD9C8" width="9" height="10.8"/>
			<rect x="34.6" y="27.6" fill="#08AABA" width="6.9" height="9"/>
			<rect x="34.1" y="30.1" fill="#DDD9C8" width="7.8" height="0.9"/>
		</g>
		<g>
			<rect x="47.1" y="26.7" fill="#DDD9C8" width="9" height="10.8"/>
			<rect x="48.1" y="27.6" fill="#08AABA" width="6.9" height="9"/>
			<rect x="47.7" y="30.1" fill="#DDD9C8" width="7.8" height="0.9"/>
		</g>
		<g>
			<rect x="7.5" y="40.3" fill="#DDD9C8" width="9" height="10.8"/>
			<rect x="8.5" y="41.2" fill="#08AABA" width="6.9" height="9"/>
			<rect x="8.1" y="43.8" fill="#DDD9C8" width="7.8" height="0.9"/>
		</g>
		<g>
			<rect x="73.1" y="40.3" fill="#DDD9C8" width="9" height="10.8"/>
			<rect x="74.1" y="41.2" fill="#08AABA" width="6.9" height="9"/>
			<rect x="73.7" y="43.8" fill="#DDD9C8" width="7.8" height="0.9"/>
		</g>
		<g>
			<rect x="20.5" y="40.3" fill="#DDD9C8" width="9" height="10.8"/>
			<rect x="21.6" y="41.2" fill="#08AABA" width="6.9" height="9"/>
			<rect x="21.1" y="43.8" fill="#DDD9C8" width="7.8" height="0.9"/>
		</g>
		<g>
			<rect x="60.1" y="40.3" fill="#DDD9C8" width="9" height="10.8"/>
			<rect x="61.1" y="41.2" fill="#08AABA" width="6.9" height="9"/>
			<rect x="60.7" y="43.8" fill="#DDD9C8" width="7.8" height="0.9"/>
		</g>
		<g>
			<rect x="33.5" y="40.3" fill="#DDD9C8" width="9" height="10.8"/>
			<rect x="34.6" y="41.2" fill="#08AABA" width="6.9" height="9"/>
			<rect x="34.1" y="43.8" fill="#DDD9C8" width="7.8" height="0.9"/>
		</g>
		<g>
			<rect x="47.1" y="40.3" fill="#DDD9C8" width="9" height="10.8"/>
			<rect x="48.1" y="41.2" fill="#08AABA" width="6.9" height="9"/>
			<rect x="47.7" y="43.8" fill="#DDD9C8" width="7.8" height="0.9"/>
		</g>
		<g>
			<rect x="7.5" y="53.9" fill="#DDD9C8" width="15.6" height="12.6"/>
			<rect x="8.4" y="54.8" fill="#08AABA" width="13.8" height="10.9"/>
			<rect x="8.1" y="57.4" fill="#DDD9C8" width="14.4" height="0.9"/>
		</g>
		<g>
			<rect x="66.5" y="53.9" fill="#DDD9C8" width="15.6" height="12.6"/>
			<rect x="67.4" y="54.8" fill="#08AABA" width="13.8" height="10.9"/>
			<rect x="67.1" y="57.4" fill="#DDD9C8" width="14.4" height="0.9"/>
		</g>
		<g>
			<path fill="#DE4A37" d="M48.2,25.1h-6.8c-1,0-1.9-0.8-1.9-1.9v-6.8c0-1,0.8-1.9,1.9-1.9h6.8c1,0,1.9,0.8,1.9,1.9v6.8
				C50.1,24.2,49.2,25.1,48.2,25.1z"/>
			<g>
				<rect x="43.7" y="15.9" fill="#F6F6F6" width="2.3" height="7.7"/>
				<rect x="40.9" y="18.6" fill="#F6F6F6" width="7.7" height="2.3"/>
			</g>
		</g>
		<g>
			<g>
				<path fill="#A18D81" d="M32.7,56.4h-1.6v1.9c0,0.1,0,0.1-0.1,0.2c-0.1,0-0.2,0.1-0.2,0.1c-0.1,0-0.2,0-0.2-0.1
					c-0.1,0-0.1-0.1-0.1-0.2v-4.2c0-0.1,0-0.1,0.1-0.2c0.1,0,0.2-0.1,0.2-0.1c0.1,0,0.2,0,0.2,0.1c0.1,0,0.1,0.1,0.1,0.2v1.8h1.6
					v-1.8c0-0.1,0-0.1,0.1-0.2c0.1,0,0.2-0.1,0.2-0.1c0.1,0,0.2,0,0.2,0.1c0.1,0,0.1,0.1,0.1,0.2v4.2c0,0.1,0,0.1-0.1,0.2
					c-0.1,0-0.2,0.1-0.2,0.1c-0.1,0-0.2,0-0.2-0.1c-0.1,0-0.1-0.1-0.1-0.2V56.4z"/>
				<path fill="#A18D81" d="M36.2,58.6c-0.2,0-0.4,0-0.6-0.1c-0.2-0.1-0.3-0.1-0.5-0.2c-0.1-0.1-0.2-0.3-0.3-0.4
					c-0.1-0.2-0.1-0.4-0.1-0.7v-1.8c0-0.3,0-0.5,0.1-0.7c0.1-0.2,0.2-0.3,0.3-0.4c0.1-0.1,0.3-0.2,0.5-0.2c0.2-0.1,0.4-0.1,0.6-0.1
					c0.2,0,0.4,0,0.6,0.1c0.2,0.1,0.3,0.1,0.5,0.2c0.1,0.1,0.2,0.3,0.3,0.4c0.1,0.2,0.1,0.4,0.1,0.7v1.8c0,0.3,0,0.5-0.1,0.7
					c-0.1,0.2-0.2,0.3-0.3,0.4c-0.1,0.1-0.3,0.2-0.5,0.2C36.6,58.6,36.4,58.6,36.2,58.6z M37,55.4c0-0.3-0.1-0.5-0.2-0.6
					c-0.1-0.1-0.3-0.2-0.6-0.2c-0.3,0-0.4,0.1-0.6,0.2c-0.1,0.1-0.2,0.3-0.2,0.6v1.8c0,0.3,0.1,0.5,0.2,0.6c0.1,0.1,0.3,0.2,0.6,0.2
					c0.2,0,0.4-0.1,0.6-0.2c0.1-0.1,0.2-0.3,0.2-0.6V55.4z"/>
				<path fill="#A18D81" d="M40.1,58c0.2,0,0.4-0.1,0.6-0.2c0.2-0.1,0.2-0.3,0.2-0.5c0-0.2-0.1-0.3-0.2-0.4
					c-0.1-0.1-0.2-0.2-0.4-0.3c-0.2-0.1-0.3-0.2-0.5-0.2c-0.2-0.1-0.4-0.2-0.5-0.3c-0.2-0.1-0.3-0.2-0.4-0.4
					c-0.1-0.2-0.2-0.4-0.2-0.6c0-0.2,0-0.4,0.1-0.6c0.1-0.2,0.2-0.3,0.4-0.4c0.1-0.1,0.3-0.2,0.5-0.2c0.2,0,0.4-0.1,0.5-0.1
					c0.1,0,0.2,0,0.4,0c0.1,0,0.3,0,0.4,0.1c0.1,0,0.2,0.1,0.3,0.1c0.1,0.1,0.1,0.1,0.1,0.2c0,0,0,0.1,0,0.1c0,0,0,0.1-0.1,0.1
					c0,0-0.1,0.1-0.1,0.1c0,0-0.1,0-0.1,0c0,0-0.1,0-0.1,0c0,0-0.1-0.1-0.2-0.1c-0.1,0-0.1-0.1-0.2-0.1c-0.1,0-0.2,0-0.4,0
					c-0.2,0-0.4,0-0.6,0.1c-0.2,0.1-0.2,0.2-0.2,0.4c0,0.2,0.1,0.3,0.2,0.4c0.1,0.1,0.2,0.2,0.4,0.2c0.2,0.1,0.3,0.1,0.5,0.2
					c0.2,0.1,0.4,0.2,0.5,0.3c0.2,0.1,0.3,0.3,0.4,0.4c0.1,0.2,0.2,0.4,0.2,0.7c0,0.2,0,0.4-0.1,0.6c-0.1,0.2-0.2,0.3-0.3,0.4
					c-0.1,0.1-0.3,0.2-0.5,0.3c-0.2,0.1-0.4,0.1-0.6,0.1c-0.2,0-0.4,0-0.6-0.1c-0.2,0-0.3-0.1-0.5-0.2c-0.1-0.1-0.2-0.2-0.3-0.2
					c-0.1-0.1-0.1-0.2-0.1-0.3c0,0,0-0.1,0-0.1c0,0,0-0.1,0.1-0.1c0,0,0.1-0.1,0.1-0.1c0,0,0.1,0,0.1,0c0.1,0,0.1,0,0.2,0.1
					c0.1,0.1,0.1,0.1,0.2,0.2c0.1,0.1,0.2,0.1,0.3,0.2C39.8,58,39.9,58,40.1,58z"/>
				<path fill="#A18D81" d="M42.8,54.2c0-0.1,0-0.1,0.1-0.2c0,0,0.1-0.1,0.2-0.1h1.3c0.2,0,0.4,0,0.6,0.1c0.2,0,0.3,0.1,0.5,0.2
					c0.1,0.1,0.2,0.3,0.3,0.4c0.1,0.2,0.1,0.4,0.1,0.6v0.1c0,0.3,0,0.5-0.1,0.6c-0.1,0.2-0.2,0.3-0.3,0.4c-0.1,0.1-0.3,0.2-0.5,0.2
					c-0.2,0.1-0.4,0.1-0.6,0.1h-0.8v1.6c0,0.1,0,0.1-0.1,0.2c-0.1,0-0.2,0.1-0.2,0.1c-0.1,0-0.2,0-0.2-0.1c-0.1,0-0.1-0.1-0.1-0.2
					V54.2z M43.5,54.5v1.7h0.8c0.2,0,0.4-0.1,0.6-0.2c0.1-0.1,0.2-0.3,0.2-0.6v-0.1c0-0.3-0.1-0.5-0.2-0.6c-0.1-0.1-0.3-0.2-0.6-0.2
					H43.5z"/>
				<path fill="#A18D81" d="M46.8,54.2c0-0.1,0-0.1,0.1-0.2c0.1,0,0.2-0.1,0.2-0.1c0.1,0,0.2,0,0.2,0.1c0.1,0,0.1,0.1,0.1,0.2v4.2
					c0,0.1,0,0.1-0.1,0.2c-0.1,0-0.2,0.1-0.2,0.1c-0.1,0-0.2,0-0.2-0.1c-0.1,0-0.1-0.1-0.1-0.2V54.2z"/>
				<path fill="#A18D81" d="M51.5,53.9c0.1,0,0.1,0,0.2,0.1c0,0.1,0.1,0.1,0.1,0.2c0,0.1,0,0.2-0.1,0.2c0,0.1-0.1,0.1-0.2,0.1h-1
					v3.8c0,0.1,0,0.1-0.1,0.2c-0.1,0-0.2,0.1-0.2,0.1c-0.1,0-0.2,0-0.2-0.1c-0.1,0-0.1-0.1-0.1-0.2v-3.8h-1c-0.1,0-0.1,0-0.2-0.1
					c0-0.1-0.1-0.1-0.1-0.2c0-0.1,0-0.1,0.1-0.2c0-0.1,0.1-0.1,0.2-0.1H51.5z"/>
				<path fill="#A18D81" d="M52.4,58.6c0,0-0.1,0-0.1,0c-0.1,0-0.1,0-0.1-0.1c0,0-0.1-0.1-0.1-0.1c0,0,0-0.1,0-0.1c0,0,0,0,0-0.1
					l1.3-4.1c0-0.1,0.1-0.1,0.2-0.2c0.1,0,0.2-0.1,0.3-0.1c0.1,0,0.2,0,0.3,0.1c0.1,0,0.1,0.1,0.2,0.2l1.3,4.1c0,0,0,0,0,0.1
					c0,0,0,0.1,0,0.1c0,0-0.1,0.1-0.1,0.1c0,0-0.1,0-0.1,0.1c-0.1,0-0.1,0-0.2,0c-0.1,0-0.1,0-0.1,0c0,0-0.1-0.1-0.1-0.1l-0.3-0.9
					h-1.6l-0.3,0.9c0,0.1,0,0.1-0.1,0.1C52.5,58.6,52.4,58.6,52.4,58.6z M54.4,57l-0.7-2.2L53,57H54.4z"/>
				<path fill="#A18D81" d="M56.7,58.6c-0.1,0-0.1,0-0.2-0.1c-0.1,0-0.1-0.1-0.1-0.2v-4.2c0-0.1,0-0.1,0.1-0.2
					c0.1,0,0.2-0.1,0.2-0.1c0.1,0,0.2,0,0.2,0.1c0.1,0,0.1,0.1,0.1,0.2V58h1.7c0.1,0,0.1,0,0.2,0.1c0,0.1,0.1,0.1,0.1,0.2
					c0,0.1,0,0.1-0.1,0.2c0,0.1-0.1,0.1-0.2,0.1H56.7z"/>
			</g>
			<g>
				<path fill="#FFFFFF" d="M32.7,56.4h-1.6v1.9c0,0.1,0,0.1-0.1,0.2c-0.1,0-0.2,0.1-0.2,0.1c-0.1,0-0.2,0-0.2-0.1
					c-0.1,0-0.1-0.1-0.1-0.2v-4.2c0-0.1,0-0.1,0.1-0.2c0.1,0,0.2-0.1,0.2-0.1c0.1,0,0.2,0,0.2,0.1c0.1,0,0.1,0.1,0.1,0.2v1.8h1.6
					v-1.8c0-0.1,0-0.1,0.1-0.2c0.1,0,0.2-0.1,0.2-0.1c0.1,0,0.2,0,0.2,0.1c0.1,0,0.1,0.1,0.1,0.2v4.2c0,0.1,0,0.1-0.1,0.2
					c-0.1,0-0.2,0.1-0.2,0.1c-0.1,0-0.2,0-0.2-0.1c-0.1,0-0.1-0.1-0.1-0.2V56.4z"/>
				<path fill="#FFFFFF" d="M36.2,58.6c-0.2,0-0.4,0-0.6-0.1c-0.2-0.1-0.3-0.1-0.5-0.2c-0.1-0.1-0.2-0.3-0.3-0.4
					c-0.1-0.2-0.1-0.4-0.1-0.7v-1.8c0-0.3,0-0.5,0.1-0.7c0.1-0.2,0.2-0.3,0.3-0.4c0.1-0.1,0.3-0.2,0.5-0.2c0.2-0.1,0.4-0.1,0.6-0.1
					c0.2,0,0.4,0,0.6,0.1c0.2,0.1,0.3,0.1,0.5,0.2c0.1,0.1,0.2,0.3,0.3,0.4c0.1,0.2,0.1,0.4,0.1,0.7v1.8c0,0.3,0,0.5-0.1,0.7
					c-0.1,0.2-0.2,0.3-0.3,0.4c-0.1,0.1-0.3,0.2-0.5,0.2C36.6,58.6,36.4,58.6,36.2,58.6z M37,55.4c0-0.3-0.1-0.5-0.2-0.6
					c-0.1-0.1-0.3-0.2-0.6-0.2c-0.3,0-0.4,0.1-0.6,0.2c-0.1,0.1-0.2,0.3-0.2,0.6v1.8c0,0.3,0.1,0.5,0.2,0.6c0.1,0.1,0.3,0.2,0.6,0.2
					c0.2,0,0.4-0.1,0.6-0.2c0.1-0.1,0.2-0.3,0.2-0.6V55.4z"/>
				<path fill="#FFFFFF" d="M40.1,58c0.2,0,0.4-0.1,0.6-0.2c0.2-0.1,0.2-0.3,0.2-0.5c0-0.2-0.1-0.3-0.2-0.4
					c-0.1-0.1-0.2-0.2-0.4-0.3c-0.2-0.1-0.3-0.2-0.5-0.2c-0.2-0.1-0.4-0.2-0.5-0.3c-0.2-0.1-0.3-0.2-0.4-0.4
					c-0.1-0.2-0.2-0.4-0.2-0.6c0-0.2,0-0.4,0.1-0.6c0.1-0.2,0.2-0.3,0.4-0.4c0.1-0.1,0.3-0.2,0.5-0.2c0.2,0,0.4-0.1,0.5-0.1
					c0.1,0,0.2,0,0.4,0c0.1,0,0.3,0,0.4,0.1c0.1,0,0.2,0.1,0.3,0.1c0.1,0.1,0.1,0.1,0.1,0.2c0,0,0,0.1,0,0.1c0,0,0,0.1-0.1,0.1
					c0,0-0.1,0.1-0.1,0.1c0,0-0.1,0-0.1,0c0,0-0.1,0-0.1,0c0,0-0.1-0.1-0.2-0.1c-0.1,0-0.1-0.1-0.2-0.1c-0.1,0-0.2,0-0.4,0
					c-0.2,0-0.4,0-0.6,0.1c-0.2,0.1-0.2,0.2-0.2,0.4c0,0.2,0.1,0.3,0.2,0.4c0.1,0.1,0.2,0.2,0.4,0.2c0.2,0.1,0.3,0.1,0.5,0.2
					c0.2,0.1,0.4,0.2,0.5,0.3c0.2,0.1,0.3,0.3,0.4,0.4c0.1,0.2,0.2,0.4,0.2,0.7c0,0.2,0,0.4-0.1,0.6c-0.1,0.2-0.2,0.3-0.3,0.4
					c-0.1,0.1-0.3,0.2-0.5,0.3c-0.2,0.1-0.4,0.1-0.6,0.1c-0.2,0-0.4,0-0.6-0.1c-0.2,0-0.3-0.1-0.5-0.2c-0.1-0.1-0.2-0.2-0.3-0.2
					c-0.1-0.1-0.1-0.2-0.1-0.3c0,0,0-0.1,0-0.1c0,0,0-0.1,0.1-0.1c0,0,0.1-0.1,0.1-0.1c0,0,0.1,0,0.1,0c0.1,0,0.1,0,0.2,0.1
					c0.1,0.1,0.1,0.1,0.2,0.2c0.1,0.1,0.2,0.1,0.3,0.2C39.8,58,39.9,58,40.1,58z"/>
				<path fill="#FFFFFF" d="M42.8,54.2c0-0.1,0-0.1,0.1-0.2c0,0,0.1-0.1,0.2-0.1h1.3c0.2,0,0.4,0,0.6,0.1c0.2,0,0.3,0.1,0.5,0.2
					c0.1,0.1,0.2,0.3,0.3,0.4c0.1,0.2,0.1,0.4,0.1,0.6v0.1c0,0.3,0,0.5-0.1,0.6c-0.1,0.2-0.2,0.3-0.3,0.4c-0.1,0.1-0.3,0.2-0.5,0.2
					c-0.2,0.1-0.4,0.1-0.6,0.1h-0.8v1.6c0,0.1,0,0.1-0.1,0.2c-0.1,0-0.2,0.1-0.2,0.1c-0.1,0-0.2,0-0.2-0.1c-0.1,0-0.1-0.1-0.1-0.2
					V54.2z M43.5,54.5v1.7h0.8c0.2,0,0.4-0.1,0.6-0.2c0.1-0.1,0.2-0.3,0.2-0.6v-0.1c0-0.3-0.1-0.5-0.2-0.6c-0.1-0.1-0.3-0.2-0.6-0.2
					H43.5z"/>
				<path fill="#FFFFFF" d="M46.8,54.2c0-0.1,0-0.1,0.1-0.2c0.1,0,0.2-0.1,0.2-0.1c0.1,0,0.2,0,0.2,0.1c0.1,0,0.1,0.1,0.1,0.2v4.2
					c0,0.1,0,0.1-0.1,0.2c-0.1,0-0.2,0.1-0.2,0.1c-0.1,0-0.2,0-0.2-0.1c-0.1,0-0.1-0.1-0.1-0.2V54.2z"/>
				<path fill="#FFFFFF" d="M51.5,53.9c0.1,0,0.1,0,0.2,0.1c0,0.1,0.1,0.1,0.1,0.2c0,0.1,0,0.2-0.1,0.2c0,0.1-0.1,0.1-0.2,0.1h-1
					v3.8c0,0.1,0,0.1-0.1,0.2c-0.1,0-0.2,0.1-0.2,0.1c-0.1,0-0.2,0-0.2-0.1c-0.1,0-0.1-0.1-0.1-0.2v-3.8h-1c-0.1,0-0.1,0-0.2-0.1
					c0-0.1-0.1-0.1-0.1-0.2c0-0.1,0-0.1,0.1-0.2c0-0.1,0.1-0.1,0.2-0.1H51.5z"/>
				<path fill="#FFFFFF" d="M52.4,58.6c0,0-0.1,0-0.1,0c-0.1,0-0.1,0-0.1-0.1c0,0-0.1-0.1-0.1-0.1c0,0,0-0.1,0-0.1c0,0,0,0,0-0.1
					l1.3-4.1c0-0.1,0.1-0.1,0.2-0.2c0.1,0,0.2-0.1,0.3-0.1c0.1,0,0.2,0,0.3,0.1c0.1,0,0.1,0.1,0.2,0.2l1.3,4.1c0,0,0,0,0,0.1
					c0,0,0,0.1,0,0.1c0,0-0.1,0.1-0.1,0.1c0,0-0.1,0-0.1,0.1c-0.1,0-0.1,0-0.2,0c-0.1,0-0.1,0-0.1,0c0,0-0.1-0.1-0.1-0.1l-0.3-0.9
					h-1.6l-0.3,0.9c0,0.1,0,0.1-0.1,0.1C52.5,58.6,52.4,58.6,52.4,58.6z M54.4,57l-0.7-2.2L53,57H54.4z"/>
				<path fill="#FFFFFF" d="M56.7,58.6c-0.1,0-0.1,0-0.2-0.1c-0.1,0-0.1-0.1-0.1-0.2v-4.2c0-0.1,0-0.1,0.1-0.2
					c0.1,0,0.2-0.1,0.2-0.1c0.1,0,0.2,0,0.2,0.1c0.1,0,0.1,0.1,0.1,0.2V58h1.7c0.1,0,0.1,0,0.2,0.1c0,0.1,0.1,0.1,0.1,0.2
					c0,0.1,0,0.1-0.1,0.2c0,0.1-0.1,0.1-0.2,0.1H56.7z"/>
			</g>
		</g>
		<path opacity="0.15" fill="#1D1D1B" d="M49.4,15c0.1,0.4,0.1,0.7,0.1,1.1c0,4.4-3.6,8-8,8c-0.6,0-1.3-0.1-1.9-0.2
			c0.3,0.7,0.9,1.2,1.7,1.2h6.8c1,0,1.9-0.8,1.9-1.9v-6.8C50,15.8,49.8,15.3,49.4,15z"/>
		<path opacity="0.15" fill="#1D1D1B" d="M33.2,58.9c-2.2,0-4.4-0.1-6.5-0.2v1.1h36.2v-6.5C57,56.6,45.9,58.9,33.2,58.9z"/>
		<path opacity="0.1" fill="#1D1D1B" d="M7.5,37.4h9V26.7C15.6,31.9,13.4,36.1,7.5,37.4z"/>
		<path opacity="0.1" fill="#1D1D1B" d="M20.5,37.4h9V26.7C28.6,31.9,26.5,36.1,20.5,37.4z"/>
		<path opacity="0.1" fill="#1D1D1B" d="M33.5,37.4h9V26.7C41.6,31.9,39.5,36.1,33.5,37.4z"/>
		<path opacity="0.1" fill="#1D1D1B" d="M47.1,37.4h9V26.7C55.2,31.9,53,36.1,47.1,37.4z"/>
		<path opacity="0.1" fill="#1D1D1B" d="M60.1,37.4h9V26.7C68.2,31.9,66,36.1,60.1,37.4z"/>
		<path opacity="0.1" fill="#1D1D1B" d="M7.5,51.1h9V40.3C15.6,45.5,13.4,49.7,7.5,51.1z"/>
		<path opacity="0.1" fill="#1D1D1B" d="M20.5,51.1h9V40.3C28.6,45.5,26.5,49.7,20.5,51.1z"/>
		<path opacity="0.1" fill="#1D1D1B" d="M33.5,51.1h9V40.3C41.6,45.5,39.5,49.7,33.5,51.1z"/>
		<path opacity="0.1" fill="#1D1D1B" d="M47.1,51.1h9V40.3C55.2,45.5,53,49.7,47.1,51.1z"/>
		<path opacity="0.1" fill="#1D1D1B" d="M60.1,51.1h9V40.3C68.2,45.5,66,49.7,60.1,51.1z"/>
		<path opacity="0.1" fill="#1D1D1B" d="M73.1,37.4h9V26.7C81.2,31.9,79,36.1,73.1,37.4z"/>
		<path opacity="0.1" fill="#1D1D1B" d="M73.1,51.1h9V40.3C81.2,45.5,79,49.7,73.1,51.1z"/>
		<path opacity="0.1" fill="#1D1D1B" d="M7.5,66.6h15.6V53.9C22.2,62,16.5,65.8,7.5,66.6z"/>
		<path opacity="0.1" fill="#1D1D1B" d="M66.5,66.6h15.6V53.9C81.2,62,75.5,65.8,66.5,66.6z"/>
		<polygon opacity="0.1" fill="#1D1D1B" points="60,61.5 29.6,61.5 26.7,59.8 62.9,59.8 		"/>
		<path opacity="0.1" fill="#1D1D1B" d="M44,74.9h-7.4c3.4-1.9,6.4-4.6,7.4-11.6V74.9z"/>
		<path opacity="0.1" fill="#1D1D1B" d="M53,74.9h-7.4c3.4-1.9,6.4-4.6,7.4-11.6V74.9z"/>
		<rect x="41.8" y="68.1" fill="#DDD9C8" width="1.5" height="2.1"/>
		<rect x="46.3" y="68.1" fill="#DDD9C8" width="1.5" height="2.1"/>
	</g>
</g>
</svg>
