<?xml version="1.0" encoding="iso-8859-1"?>
<!-- Generator: Adobe Illustrator 21.1.0, SVG Export Plug-In . SVG Version: 6.00 Build 0)  -->
<svg version="1.1" id="Layer_1" xmlns="http://www.w3.org/2000/svg" xmlns:xlink="http://www.w3.org/1999/xlink" x="0px" y="0px"
	 viewBox="0 0 100 100" style="enable-background:new 0 0 100 100;" xml:space="preserve">
<g>
	<g>
		<path d="M65.782,50.638H50.15c-0.829,0-1.5-0.672-1.5-1.5V35.548c0-0.829,0.671-1.5,1.5-1.5c0.828,0,1.5,0.671,1.5,1.5v12.089
			h12.632V35.33c0-0.829,0.672-1.5,1.5-1.5s1.5,0.671,1.5,1.5v13.807C67.282,49.966,66.61,50.638,65.782,50.638z"/>
		<path d="M69.201,39.648c-0.345,0-0.69-0.118-0.974-0.36L58.06,30.6l-9.938,8.647c-0.625,0.543-1.573,0.477-2.117-0.147
			c-0.543-0.625-0.478-1.573,0.147-2.117l10.914-9.496c0.561-0.486,1.393-0.491,1.959-0.008l11.151,9.529
			c0.63,0.538,0.704,1.485,0.166,2.115C70.046,39.47,69.625,39.648,69.201,39.648z"/>
	</g>
	<path d="M58.127,68.879c-7.234,0-14.131-2.611-19.588-7.452C26.337,50.601,25.216,31.866,36.04,19.665
		c5.24-5.912,12.47-9.427,20.357-9.9c7.901-0.47,15.487,2.156,21.398,7.398c5.913,5.242,9.43,12.474,9.902,20.362
		c0.473,7.887-2.154,15.486-7.397,21.397l0,0c-5.243,5.912-12.475,9.429-20.363,9.901C59.332,68.86,58.729,68.879,58.127,68.879z
		 M58.201,12.71c-0.539,0-1.081,0.016-1.624,0.049c-7.088,0.424-13.584,3.584-18.292,8.896c-9.727,10.964-8.719,27.799,2.245,37.527
		c5.311,4.712,12.151,7.065,19.228,6.647c7.089-0.425,13.587-3.585,18.299-8.897l0,0c4.711-5.312,7.071-12.141,6.646-19.228
		c-0.425-7.088-3.584-13.586-8.897-18.297C70.9,15.057,64.702,12.71,58.201,12.71z"/>
	<path d="M34.305,68.123c-0.354,0-0.709-0.124-0.995-0.378c-0.62-0.55-0.677-1.497-0.127-2.117l5.321-6
		c0.55-0.618,1.498-0.678,2.117-0.127c0.62,0.55,0.677,1.497,0.127,2.117l-5.321,6C35.131,67.952,34.719,68.123,34.305,68.123z"/>
	<path d="M18.981,90.288c-0.368,0-0.725-0.136-1-0.382l-5.233-4.683c-0.617-0.553-0.67-1.501-0.117-2.118l16.654-18.612
		c0.55-0.616,1.495-0.67,2.113-0.122l5.251,4.661c0.298,0.265,0.479,0.638,0.502,1.036s-0.114,0.789-0.38,1.086L20.099,89.788
		c-0.265,0.297-0.637,0.476-1.035,0.498C19.036,90.287,19.009,90.288,18.981,90.288z M15.866,83.988l2.997,2.682l14.667-16.394
		l-3.007-2.67L15.866,83.988z"/>
</g>
</svg>
