<?xml version="1.0" encoding="iso-8859-1"?>
<!-- Generator: Adobe Illustrator 19.0.0, SVG Export Plug-In . SVG Version: 6.00 Build 0)  -->
<svg version="1.1" id="Capa_1" xmlns="http://www.w3.org/2000/svg" xmlns:xlink="http://www.w3.org/1999/xlink" x="0px" y="0px"
	 viewBox="0 0 512 512" style="enable-background:new 0 0 512 512;" xml:space="preserve">
<path style="fill:#FFEEE7;" d="M498.239,469.721L296.257,275.819c-8.047-7.726-20.833-7.465-28.558,0.583
	c-7.725,8.047-7.464,20.833,0.583,28.558l201.982,193.902c6.582,6.319,16.917,7.412,24.665,2.58
	c5.064-3.157,8.509-8.576,9.324-14.477C505.126,480.642,502.842,474.14,498.239,469.721z"/>
<path style="fill:#FFDCCE;" d="M266.976,277.234c-6.954,8.074-6.475,20.259,1.305,27.726l55.694,53.467l13.496-13.496
	L266.976,277.234z"/>
<path style="fill:#FDE8A3;" d="M498.239,469.721l-103.442-99.304l-28.57,28.57l104.037,99.875c6.582,6.319,16.917,7.412,24.665,2.58
	c5.064-3.157,8.509-8.576,9.324-14.477C505.126,480.642,502.842,474.14,498.239,469.721z"/>
<path style="fill:#FDDA6B;" d="M379.03,384.838l-13.491,13.491l104.723,100.534c6.582,6.319,16.917,7.412,24.665,2.58
	c1.103-0.688,2.123-1.488,3.062-2.371L379.03,384.838z"/>
<polygon style="fill:#BBF5E6;" points="354.95,332.165 326.38,360.735 366.227,398.987 394.797,370.417 "/>
<polygon style="fill:#8EEED5;" points="379.03,384.838 337.472,344.93 323.975,358.426 365.54,398.328 "/>
<circle style="fill:#4AE4BC;" cx="169.16" cy="169.2" r="161.585"/>
<circle style="fill:#D2F8EE;" cx="169.16" cy="169.2" r="121.189"/>
<circle style="fill:#E8FCF7;" cx="169.16" cy="169.2" r="105.03"/>
<path style="fill:#FF97A4;" d="M169.627,138.765c-52.687-58.541-99.519,0-76.104,46.832s76.104,64.395,76.104,64.395
	s52.687-17.562,76.104-64.395S222.314,80.225,169.627,138.765z"/>
<path style="fill:#FF7D8D;" d="M119.179,169.655c-9.522-19.045-8.093-39.906,0.427-54.914
	c-26.699,4.693-41.376,40.268-26.082,70.856c23.417,46.832,76.104,64.395,76.104,64.395s11.954-3.988,27.002-13.221
	C184.223,231.877,140.392,212.081,119.179,169.655z"/>
<path d="M503.483,464.257L303.323,272.103c21.933-28.53,34.996-64.216,34.996-102.902c0-93.275-75.884-169.16-169.16-169.16
	S0,75.926,0,169.201s75.884,169.16,169.16,169.16c34.563,0,66.732-10.427,93.543-28.291c0.109,0.119,0.215,0.24,0.333,0.353
	l201.982,193.902c8.597,8.254,22.226,10.023,32.663,4.28c9.976-5.49,15.703-17.15,14.032-28.397
	C510.814,474.166,507.893,468.489,503.483,464.257z M337.202,360.625l17.856-17.856l28.917,27.759l-17.856,17.856L337.202,360.625z
	 M15.149,169.201c0-84.922,69.089-154.011,154.011-154.011S323.17,84.279,323.17,169.201S254.082,323.212,169.16,323.212
	S15.149,254.123,15.149,169.201z M293.545,283.715l50.583,48.56l-17.856,17.856l-51.191-49.144
	C281.656,295.693,287.83,289.918,293.545,283.715z M490.92,495.015c-4.798,2.991-11.338,2.293-15.412-1.618l-98.46-94.521
	l17.856-17.856l98.088,94.165C498.807,480.766,497.77,490.745,490.92,495.015z"/>
<path d="M255.613,73.775c-3.099-2.81-7.889-2.574-10.699,0.525c-2.81,3.099-2.574,7.889,0.525,10.699
	c23.727,21.509,37.335,52.199,37.335,84.202c0,62.648-50.967,113.615-113.615,113.615S55.545,231.848,55.545,169.201
	S106.512,55.586,169.16,55.586c15.76,0,31.012,3.163,45.333,9.403c3.836,1.67,8.298-0.084,9.97-3.918
	c1.67-3.835-0.084-8.298-3.918-9.97c-16.241-7.075-33.529-10.664-51.383-10.664C98.16,40.438,40.397,98.2,40.397,169.201
	S98.16,297.964,169.161,297.964s128.762-57.764,128.762-128.763C297.923,132.931,282.501,98.15,255.613,73.775z"/>
<path d="M169.627,127.822c-33.448-32.678-59.981-19.101-67.621-13.894c-22.077,15.046-28.778,48.015-15.257,75.057
	c24.537,49.074,78.209,67.436,80.483,68.193c1.546,0.515,3.244,0.515,4.79,0c2.272-0.757,55.945-19.119,80.483-68.193
	c13.522-27.042,6.819-60.011-15.257-75.057C229.608,108.721,203.075,95.145,169.627,127.822z M228.716,126.447
	c13.674,9.319,21.477,33.29,10.239,55.765c-18.935,37.869-59.14,55.689-69.336,59.703c-10.213-3.996-50.324-21.708-69.321-59.703
	c-11.237-22.475-3.435-46.446,10.239-55.765c4.657-3.174,9.762-4.735,15.164-4.735c11.874,0,25.182,7.551,38.296,22.122
	c2.964,3.293,8.296,3.293,11.259,0C194.338,122.633,213.822,116.294,228.716,126.447z"/>
<g>
</g>
<g>
</g>
<g>
</g>
<g>
</g>
<g>
</g>
<g>
</g>
<g>
</g>
<g>
</g>
<g>
</g>
<g>
</g>
<g>
</g>
<g>
</g>
<g>
</g>
<g>
</g>
<g>
</g>
</svg>
