<?xml version="1.0" encoding="UTF-8" standalone="no"?> <svg id="Layer_1" data-name="Layer 1" xmlns="http://www.w3.org/2000/svg" viewBox="0 0 128 128"><defs><style>.cls-1{fill:#2d3e50;}</style></defs><title>v</title><path class="cls-1" d="M115.20157,20.70239c-1.41735-8.27639-7.81792-14.4732-15.462-17.40379C89.63226-.5789,78.79085,2.945,69.10309,6.385c-.67422.23972-1.34544.47944-2.01067.71017l-.03075.01076a9.3183,9.3183,0,0,1-6.1233,0l-.03078-.01077c-.66522-.23074-1.33644-.47046-2.01065-.71017C49.20917,2.945,38.36776-.5789,28.26049,3.2986,20.61636,6.22919,14.2158,12.426,12.79843,20.70239c-1.17763,6.856.70717,13.66415,1.94474,20.36437,1.18663,6.42754,1.18363,12.80715,1.21061,19.32459.08389,20.34036,2.04661,38.50831,12.81013,56.05592,3.12837,5.10009,11.13507,13.847,17.224,8.0187,4.96524-4.74948,3.23924-13.38548,3.99437-19.38152.872-6.901,2.99052-37.72018,14.01772-38.83492,11.0272,1.11473,13.14574,31.93392,14.01774,38.83492.75511,5.996-.97087,14.632,3.99437,19.38152,6.08892,5.82826,14.09563-2.91861,17.224-8.0187,10.7635-17.54761,12.72622-35.71557,12.81013-56.05592.027-6.51744.024-12.897,1.21059-19.32459C114.4944,34.36654,116.3792,27.55843,115.20157,20.70239Z"/></svg>