<?xml version="1.0" encoding="utf-8"?>
<!-- Generator: Adobe Illustrator 18.0.0, SVG Export Plug-In . SVG Version: 6.00 Build 0)  -->
<!DOCTYPE svg PUBLIC "-//W3C//DTD SVG 1.1//EN" "http://www.w3.org/Graphics/SVG/1.1/DTD/svg11.dtd">
<svg version="1.1" id="Layer_1" xmlns="http://www.w3.org/2000/svg" xmlns:xlink="http://www.w3.org/1999/xlink" x="0px" y="0px"
	 viewBox="0 0 70.3 89.1" enable-background="new 0 0 70.3 89.1" xml:space="preserve">
<g>
	<rect x="27.6" y="39.4" fill="#FED8B5" width="17.4" height="19.9"/>
	<path opacity="0.2" fill="#010101" d="M45,39.4v2.3c-0.3,0.3-0.7,0.5-1.1,0.8c-0.1,0.1-0.3,0.2-0.4,0.3c-2,1.4-4.2,2.7-4.2,2.7
		c-1.6,0.9-4.2,0.9-5.8,0c0,0-2.6-1.6-4.8-3.1c-0.4-0.3-0.8-0.6-1.2-0.8v-2.1H45z"/>
	<path fill="#FED8B5" d="M48.9,21.2c0,6-0.1,12.9-0.4,14.1c-0.2,1-1.4,3-2.2,3.7c-0.3,0.3-0.8,0.7-1.4,1.1c-0.4,0.3-0.8,0.6-1.2,0.9
		c-0.2,0.1-0.3,0.2-0.5,0.3c-2,1.3-4.1,2.6-4.1,2.6C37.6,45,35,45,33.4,44c0,0-2.6-1.6-4.8-3.1c-0.4-0.3-0.7-0.5-1-0.7
		c-0.6-0.4-1.1-0.8-1.4-1.1c-0.8-0.8-1.9-2.7-2.2-3.7c-0.3-1.3-0.4-8.1-0.4-14.1c0-3.9,0.1-7.5,0.1-9c0.1-2.3,1.6-5.3,3.3-5.7
		c0.2,0,0.5-0.1,0.7-0.2c1.3-0.3,2.3-0.5,2.3-0.5c0.1,0,0.2-0.1,0.4-0.1c3.4-0.7,8.5-0.7,11.8,0c0,0,0.1,0,0.1,0
		c1.1,0.2,2.2,0.5,3.1,0.7c1.2,0.3,2.3,1.8,2.9,3.5c0.3,0.7,0.4,1.5,0.4,2.2c0,0.5,0.1,1.3,0.1,2.4C48.9,16.4,48.9,18.7,48.9,21.2z"
		/>
	<path fill="#FFFFFF" d="M50.9,53.3v23.2H21.7V53.3h14.6c0,0,0,0,0,0H50.9z"/>
	<g>
		<polygon fill="#F04D23" points="39.9,76.4 32.6,76.4 32.8,74.8 32.8,74.6 33.2,71.4 33.3,70.8 34.6,59.3 34.6,59.1 37.9,59.1 
			38,59.3 39.3,71.2 39.4,71.7 39.7,74.8 39.8,74.9 		"/>
		<polygon fill="#D64327" points="38,59.1 34.6,59.1 32.6,53.2 36.3,53.3 40,53.2 		"/>
	</g>
	<path fill="#3C3D43" d="M28.6,5.1c-5.1,5.8,10.8,15.1,18.5,11.2c3.8-2,3.2-8.2-0.2-10.5C43.1,3.3,31.3,2,28.6,5.1z"/>
	<path fill="#3C3D43" d="M28.6,5.1c-6.1,1.2-6.5,8.3-5.1,16.6c1.5-4.9,2.9-9.9,5.1-11C31,9.4,31.8,4.4,28.6,5.1z"/>
	<path fill="#3C3D43" d="M49.1,21.7c-0.1-0.2-0.1-0.3-0.2-0.5c-0.5-1.7-1-3.5-1.5-5.1c-0.5-1.8-1.1-3.4-1.8-4.5
		c-0.4-0.6-0.8-1.1-1.3-1.4c-1.4-0.8-2.3-2.9-2.1-4.3c0.1-1,0.7-1.6,2-1.3c0,0,0.1,0,0.1,0c2.8,0.7,4.4,2.4,5.2,4.9
		C50.4,12.5,50,16.7,49.1,21.7z"/>
	<path opacity="0.3" fill="#010101" d="M46.9,51.1c0.1,2.7-0.5,5.6-1.7,7.9c-0.3,0.5-0.6,1-0.9,1.4c-0.1-0.2-0.3-0.4-0.4-0.6
		c-0.3-0.3-0.6-0.7-0.9-1c-2.2-2.3-5.7-5-6-5.3c0,0,0,0,0,0c5.1-1.2,7.4-3.8,8.1-8.6c0.2,0.2,0.3,0.5,0.4,0.7c0.6,1,0.9,2.1,1.2,3.2
		C46.8,49.7,46.9,50.4,46.9,51.1z"/>
	<path fill="#FFFFFF" d="M46.9,51.5c0,0.6-0.1,1.2-0.2,1.8c-0.1,0.7-0.3,1.3-0.5,2v0c-0.3,1-0.7,1.9-1.2,2.7
		c-0.2,0.4-0.5,0.8-0.7,1.1c0,0-0.1-0.1-0.1-0.1v0c-0.9-1.3-3.1-2.7-4.8-3.9c-1-0.6-1.8-1.1-2.4-1.4l0,0c0,0-0.1,0-0.1,0
		c-0.3-0.2-0.5-0.3-0.5-0.3c4.5-1.1,7.2-4,8.3-8c0.1-0.5,0.3-1.1,0.4-1.7c0,0,0,0,0,0c0,0,0,0,0,0v0c0.8,1.1,1.3,2.5,1.6,4v0
		c0.1,0.3,0.1,0.6,0.1,0.9v0c0,0.1,0,0.2,0,0.3C46.9,49.8,47,50.6,46.9,51.5z"/>
	<path opacity="0.3" fill="#010101" d="M35.7,53.6C35.7,53.6,35.7,53.6,35.7,53.6c-0.3,0.2-3.8,3-6,5.3c-0.3,0.3-0.6,0.7-0.9,1
		c-0.2,0.2-0.3,0.4-0.4,0.6c-0.3-0.4-0.6-0.9-0.9-1.4c-1.3-2.3-1.9-5.2-1.7-7.9c0-0.6,0.1-1.2,0.2-1.8c0-0.1,0-0.3,0.1-0.4
		c0.2-1.2,0.6-2.3,1.2-3.2c0.1-0.3,0.3-0.5,0.5-0.7C28.3,49.9,30.6,52.4,35.7,53.6z"/>
	<path fill="#E1E1E1" d="M65,53.3c-0.6-0.8-1.3-1.5-2.2-1.9c-0.2-0.1-0.4-0.2-0.6-0.3c-0.1,0-0.2-0.1-0.2-0.1l-4.4-1.7l-2.1-0.8
		l-1.8-0.6l-3.7-0.8L49.8,47l-2-0.4l-0.9,1.8l-0.1,0.1v0L46.6,49l0,0.1l-0.3,0.7L45.8,51c0,0.4,0,0.7-0.1,1.1c0,0.4-0.1,0.8-0.1,1.2
		c0,0.2-0.1,0.5-0.1,0.7c0,0.2-0.1,0.5-0.1,0.7c0,0.2-0.1,0.5-0.2,0.7c-0.1,0.2-0.1,0.5-0.2,0.7c-0.1,0.6-0.3,1.2-0.5,1.8
		c-0.1,0.3-0.2,0.7-0.3,1v0c0,0.1-0.1,0.2-0.1,0.3c-0.1,0.2-0.2,0.4-0.2,0.7c-0.3,1-0.7,2-1.1,3c-0.2,0.5-0.3,0.9-0.5,1.4
		c-1,2.5-2,4.9-2.9,6.9c0,0,0,0,0,0c-0.1,0.3-0.3,0.5-0.4,0.8c-0.1,0.3-0.2,0.5-0.4,0.7c-0.8,1.5-1.4,2.7-2,3.5
		c-0.1,0.1-0.1,0.2-0.2,0.2c-0.1-0.1-0.1-0.2-0.2-0.2c-0.7-1.1-1.8-3-3-5.4c-1.5-3.1-3.2-7-4.5-10.9c-0.1-0.2-0.2-0.5-0.2-0.7
		c0-0.1-0.1-0.2-0.1-0.3v0c-0.1-0.4-0.2-0.7-0.3-1c0,0,0,0,0-0.1c-0.2-0.6-0.4-1.2-0.5-1.7c-0.3-1-0.4-1.9-0.6-2.9
		c-0.1-0.5-0.1-1-0.2-1.5c0,0,0,0,0,0l-0.6-1.4v0l-0.4-1L25.7,49l0,0v0l-0.9-2.2v0l-0.1-0.1h0l-2,0.4l-0.3,0.1l0,0l-3.7,0.8L17,48.5
		L10.6,51c-2.3,0.8-4.2,3.4-4.2,5.9l-4,28.6h67.9l-4-28.6C66.3,55.6,65.8,54.3,65,53.3z"/>
	<polygon fill="#F1F0F0" points="33,85.5 36.4,85.5 36.4,76.4 33,74.1 	"/>
	<path fill="#FFFFFF" d="M27.6,43.6c0.7,4.8,3.6,8.5,8.7,9.7c0,0-6.3,3.4-8,5.8C25.2,55,24.7,47.7,27.6,43.6z"/>
	<g>
		<rect x="47.3" y="73.9" fill="#FFFFFF" width="12.9" height="3.6"/>
		<rect x="12.4" y="73.9" fill="#FFFFFF" width="12.9" height="3.6"/>
	</g>
	<g>
		<g>
			<path fill="#805125" d="M34.7,80.4c-0.7,0-1.2,0.5-1.2,1.2c0,0.7,0.5,1.2,1.2,1.2c0.7,0,1.2-0.6,1.2-1.2
				C36,81,35.4,80.4,34.7,80.4z M35.2,81.9c-0.1,0-0.3-0.1-0.3-0.3c0-0.1,0.1-0.3,0.3-0.3c0.1,0,0.3,0.1,0.3,0.3
				C35.5,81.8,35.4,81.9,35.2,81.9z M34.2,81.9c-0.1,0-0.3-0.1-0.3-0.3c0-0.1,0.1-0.3,0.3-0.3c0.1,0,0.3,0.1,0.3,0.3
				C34.5,81.8,34.4,81.9,34.2,81.9z"/>
			<path fill="#9D7851" d="M34.7,80.2c-0.8,0-1.4,0.6-1.4,1.4c0,0.8,0.6,1.4,1.4,1.4c0.8,0,1.4-0.6,1.4-1.4
				C36.1,80.9,35.5,80.2,34.7,80.2z M34.7,82.7c-0.6,0-1.1-0.5-1.1-1.1c0-0.6,0.5-1.1,1.1-1.1c0.6,0,1.1,0.5,1.1,1.1
				C35.8,82.2,35.3,82.7,34.7,82.7z"/>
		</g>
		<path fill="#B2B2B2" d="M35.2,81.8h-1c-0.1,0-0.1-0.1-0.1-0.1c0-0.1,0.1-0.1,0.1-0.1h1c0.1,0,0.1,0.1,0.1,0.1
			C35.3,81.7,35.3,81.8,35.2,81.8z"/>
	</g>
	<path fill="#2D2E2D" d="M39.7,21.4c-0.6,0.1-2.8,0.9-3.4,0.9c-0.6,0-2.8-0.7-3.4-0.9c-1.9-0.5-6-0.3-7.7,0.4v1.9
		c0.4,0.2,0.7,3.1,1.1,4c0.2,0.6,0.8,1.3,1.4,1.5c1.7,0.6,3.6,0.4,4.9,0.1c0.8-0.2,1.3-0.4,1.8-1.1c0.7-1,1-4.1,2-4.1s1.3,3.1,2,4.1
		c0.4,0.6,1,0.9,1.8,1.1c1.3,0.3,3.2,0.5,4.9-0.1c0.6-0.2,1.2-0.9,1.4-1.5c0.3-0.9,0.7-3.8,1.1-4v-1.9C45.7,21.1,41.6,21,39.7,21.4z
		 M34.9,24.7c-0.1,0.4-0.3,1.5-0.8,2.7c-0.5,1.2-1.4,1.4-2.1,1.6c-0.4,0.1-2.7,0.2-3.5,0c-0.9-0.2-1.5-0.9-1.7-1.4
		c-0.2-0.5-0.6-2.1-0.6-3.5c0-1.4,1.1-1.7,2-1.9c0.4-0.1,4-0.2,5.6,0.4C34.9,23,34.9,24.2,34.9,24.7z M45.9,27.6
		c-0.2,0.5-0.8,1.2-1.7,1.4c-0.9,0.2-3.1,0.1-3.5,0c-0.7-0.1-1.5-0.4-2.1-1.6c-0.5-1.2-0.8-2.3-0.8-2.7c-0.1-0.4-0.1-1.7,1.1-2.2
		c1.6-0.6,5.2-0.5,5.6-0.4c0.9,0.2,2,0.6,2,1.9C46.5,25.4,46.1,27,45.9,27.6z"/>
	<path opacity="0.15" fill="#010101" d="M29.8,79.5l-2.6-13.8l0.3-0.1l-1.1-6.1c-0.1-0.6-0.4-1.2-0.7-1.8c0,0,0,0,0,0
		c-0.2-0.3-0.5-0.6-0.7-0.9c0,0,0,0,0,0c-1-1-2.4-1.7-3.8-1.7h-0.8l-0.1-0.7l-0.3-2h-0.4v-0.7c0-1,0.2-2,0.6-2.9c0,0,0,0,0,0
		c0,0,0,0,0,0c0.1-0.2,0.2-0.4,0.3-0.6c0,0,0-0.1,0.1-0.1c0.1-0.2,0.2-0.3,0.3-0.5c0,0,0.1-0.1,0.1-0.1c0,0,0,0,0,0
		c-0.1-0.2-0.2-0.4-0.5-0.6h0c-0.1-0.1-0.2-0.1-0.3-0.1c-0.1-0.1-0.3-0.1-0.5-0.1c-0.5,0.8-0.9,1.6-1.2,2.5c-0.2,0.7-0.3,1.3-0.4,2
		c0,0.2,0,0.4,0,0.6v0.2h0v0.5h-0.4l0,0.1l-0.3,1.9l-0.1,0.7h-0.8c-2.5,0-4.8,2-5.3,4.4l-1,5.4l0,0.1l-0.1,0.6l0.3,0.1L7.8,79.5
		c-0.1,0.7,0,1.4,0.3,2v0c0.4,1,1.2,1.8,2.1,2.2c1.4,0.6,3,0.6,3.6,0.6v0.4h1l1.4,0.2c0.3,0,0.5-0.2,0.5-0.5v-1.1
		c0-0.2-0.2-0.4-0.4-0.5c-0.1,0-0.1,0-0.2,0l-1.4,0.2h-1v0.4c-0.1,0-0.2,0-0.4,0c-0.7,0-1.9-0.1-2.9-0.6c-0.6-0.2-1-0.7-1.4-1.2
		c0,0,0,0,0,0c-0.1-0.2-0.2-0.4-0.3-0.6c0,0,0,0,0,0c-0.2-0.5-0.3-1-0.2-1.5l2.6-13.8l0.3,0.1l0.2-1.3c0.2-0.3,0.5-0.5,0.7-0.8
		c0.6-0.6,1.2-1.1,1.9-1.5c1.3-0.9,2.9-1.5,4.4-1.5c1.6,0,3.1,0.7,4.4,1.5c0.7,0.4,1.3,0.9,1.9,1.5c0.1,0.1,0.3,0.3,0.4,0.4
		c0.1,0.1,0.2,0.2,0.3,0.4l0.1,0.5v0l0.1,0.8l0.1,0h0l0.2,0L29,79.6c0.1,0.4,0,0.9-0.1,1.4c0,0,0,0.1,0,0.1
		c-0.3,0.8-0.9,1.6-1.7,1.9c-0.4,0.2-0.8,0.3-1.2,0.3c0,0-0.1,0-0.1,0c-0.9,0.2-1.7,0.2-2,0.2v-0.4h-1l-0.4-0.1l-1-0.2
		c-0.3,0-0.5,0.2-0.5,0.5v1.1c0,0.3,0.2,0.5,0.5,0.5l1.4-0.2h1v-0.4c0.6,0,2.2-0.1,3.6-0.6C28.9,83.1,30,81.2,29.8,79.5z M25.4,63.9
		L25.4,63.9c-0.6-0.7-1.2-1.3-2-1.9c-0.6-0.4-1.2-0.8-1.9-1.1c0,0-0.1,0-0.1,0c-0.8-0.4-1.7-0.6-2.7-0.6c-1.7,0-3.3,0.8-4.6,1.7
		c-0.9,0.6-1.6,1.4-2.3,2.3l0.2-1l0-0.2l0-0.3l0.5-3c0.3-1.8,2-3.2,3.8-3.2h4.6c1.3,0,2.5,0.7,3.2,1.8c0,0,0,0,0,0
		c0.3,0.4,0.5,0.9,0.6,1.4l0.8,4.3l0,0.1l0,0.2c-0.1-0.1-0.1-0.2-0.2-0.2C25.5,64,25.5,63.9,25.4,63.9z"/>
	<g>
		<path fill="#A7A6A6" d="M26.2,65.1c-0.4-0.7-0.9-1.3-1.5-1.9c-0.6-0.6-1.2-1.1-1.9-1.5c-1.3-0.9-2.9-1.5-4.4-1.5
			c-1.6,0-3.1,0.7-4.4,1.5c-0.7,0.4-1.3,0.9-1.9,1.5c-0.6,0.6-1.1,1.2-1.5,1.9c0.6-1.5,1.8-2.8,3.1-3.7c1.3-1,2.9-1.7,4.6-1.7
			c1.7,0,3.3,0.8,4.7,1.7C24.4,62.3,25.6,63.5,26.2,65.1z"/>
		<path opacity="0.2" fill="#010101" d="M24.7,63c-0.6-0.6-1.2-1.1-1.9-1.5C21.5,60.6,20,60,18.4,60c-1.6,0-3.1,0.7-4.4,1.5
			c-0.7,0.4-1.3,0.9-1.9,1.5c-0.4,0.4-0.8,0.8-1.1,1.3c-0.1,0.3-0.3,0.5-0.4,0.8c0.4-0.7,0.9-1.3,1.5-1.9c0.6-0.6,1.2-1.1,1.9-1.5
			c1.3-0.9,2.9-1.5,4.4-1.5c1.6,0,3.1,0.7,4.4,1.5c0.7,0.4,1.3,0.9,1.9,1.5c0.6,0.6,1.1,1.2,1.5,1.9c-0.1-0.3-0.2-0.5-0.4-0.8
			C25.5,63.8,25.1,63.4,24.7,63z"/>
		<path fill="#484848" d="M15.8,82.2c0.3,0,0.5,0.2,0.5,0.5v1.1c0,0.3-0.2,0.5-0.5,0.5L14.4,84v-1.6L15.8,82.2z"/>
		<rect x="13.5" y="82.5" fill="#5E5F5F" width="1" height="1.6"/>
		<path fill="#A7A6A6" d="M10.1,64.9l0.8,0.1L8.3,78.9c-0.2,1.3,0.7,2.9,1.9,3.3c1.3,0.5,2.7,0.6,3.3,0.6v0.8
			c-0.6,0-2.2-0.1-3.6-0.6c-1.6-0.6-2.7-2.5-2.4-4.2L10.1,64.9z"/>
		<path fill="#484848" d="M21,82.2c-0.3,0-0.5,0.2-0.5,0.5v1.1c0,0.3,0.2,0.5,0.5,0.5l1.4-0.2v-1.6L21,82.2z"/>
		<rect x="22.4" y="82.5" fill="#5E5F5F" width="1" height="1.6"/>
		<path fill="#A7A6A6" d="M26.8,64.9l2.6,13.9c0.2,1.7-0.8,3.6-2.4,4.2c-1.4,0.6-3,0.6-3.6,0.6v-0.8c0.6,0,2-0.1,3.3-0.6
			c1.2-0.5,2.1-2,1.9-3.3L26,65L26.8,64.9z"/>
		<path fill="#65B6E5" d="M20.5,46.9C20.5,46.9,20.5,46.9,20.5,46.9C20.4,46.9,20.4,46.9,20.5,46.9c-0.2,0.3-0.3,0.5-0.4,0.7
			c-0.1,0.2-0.2,0.4-0.3,0.6c-0.1,0.3-0.2,0.6-0.3,0.9c-0.1,0.2-0.1,0.3-0.1,0.5c-0.1,0.5-0.2,1-0.2,1.5v3.6h-1.5v-3.6
			c0-0.7,0.1-1.4,0.3-2.1c0.2-0.8,0.5-1.5,0.9-2.2c0,0,0.1,0,0.1,0c0.3-0.1,0.5-0.1,0.8-0.1c0.2,0,0.3,0,0.5,0.1
			C20.3,46.8,20.4,46.8,20.5,46.9z"/>
		<path opacity="0.3" fill="#FFFFFF" d="M20.2,46.7c0.1,0,0.2,0.1,0.3,0.1c0,0,0,0,0,0.1c-0.1,0.2-0.3,0.4-0.4,0.6
			c-0.1,0.2-0.2,0.4-0.3,0.6c-0.1,0.3-0.2,0.6-0.3,0.9c-0.1,0.2-0.1,0.3-0.1,0.5c-0.1,0.5-0.2,1-0.2,1.5v3.6h-0.4v-3.6
			c0-0.7,0.1-1.3,0.3-1.9C19.3,48.3,19.7,47.4,20.2,46.7z"/>
		<rect x="17.7" y="51.2" opacity="0.2" fill="#010101" width="1.5" height="3.5"/>
		<polygon fill="#65B6E5" points="17.3,51.7 19.5,51.7 20.1,55.2 16.8,55.2 		"/>
		<polygon opacity="0.3" fill="#FFFFFF" points="19.8,55.2 19.3,51.7 18.5,51.7 19.1,55.2 		"/>
		<path opacity="0.3" fill="#FFFFFF" d="M10.7,65L8.1,78.9c-0.2,1.3,0.7,2.9,1.9,3.3c1.3,0.5,2.7,0.6,3.3,0.6h0.2
			c-0.6,0-2-0.1-3.3-0.6c-1.2-0.5-2.1-2-1.9-3.3L10.9,65H10.7z"/>
		<path opacity="0.3" fill="#FFFFFF" d="M29.2,78.8c0.2,1.7-0.8,3.6-2.4,4.2c-1.3,0.5-2.7,0.6-3.4,0.6v0c0.6,0,2.2-0.1,3.6-0.6
			c1.6-0.6,2.7-2.5,2.4-4.2l-2.6-13.9l-0.2,0L29.2,78.8z"/>
		<path fill="#65B6E5" d="M16.1,54.4h4.6c2.5,0,4.8,2,5.3,4.4l1.1,6.1l-1.5,0.3l-1.1-6.1c-0.3-1.8-2-3.2-3.8-3.2h-4.6
			c-1.8,0-3.5,1.4-3.8,3.2l-1.1,6.1l-1.5-0.3l1.1-6.1C11.3,56.4,13.7,54.4,16.1,54.4z"/>
		<path opacity="0.3" fill="#FFFFFF" d="M12.1,59.1L11,65.2l0.2,0l1.1-6.1c0.3-1.8,2-3.2,3.8-3.2h-0.2
			C14.1,55.9,12.4,57.3,12.1,59.1z"/>
		<path opacity="0.3" fill="#FFFFFF" d="M25.8,58.8l1.1,6.1l-1.2,0.2l0,0l1.5-0.3L26,58.8c-0.4-2.4-2.8-4.4-5.3-4.4h-0.2
			C23,54.4,25.4,56.4,25.8,58.8z"/>
	</g>
	<path opacity="0.15" fill="#010101" d="M57.2,68.7c0,0.3,0,0.5-0.1,0.7c0,0.1,0,0.1-0.1,0.2c0,0.2-0.1,0.3-0.2,0.5
		c0,0.1-0.1,0.1-0.1,0.1c-0.1,0.2-0.2,0.3-0.3,0.5c0,0-0.1,0.1-0.1,0.1c-0.1,0.2-0.2,0.3-0.4,0.4c-0.5,0.5-1.3,0.9-2.1,1
		c-0.1,0-0.3,0-0.4,0c-2,0-3.6-1.6-3.6-3.6c0-0.9,0.4-1.7,0.9-2.4c0,0,0,0,0,0c0,0,0,0,0.1-0.1c0.1-0.1,0.2-0.2,0.4-0.3
		c0.1-0.1,0.1-0.1,0.2-0.1c0.1-0.1,0.3-0.2,0.4-0.3c0.1,0,0.1-0.1,0.2-0.1c0.2-0.1,0.3-0.1,0.5-0.2c0.1,0,0.1-0.1,0.2-0.1
		c0,0,0,0,0,0V52.9c0-1.4-0.3-2.8-0.8-3.9c-0.3-0.7-0.7-1.3-1.1-1.8c0.1-0.2,0.3-0.3,0.5-0.4c0.3-0.1,0.6-0.2,1-0.2
		c0.2,0.3,0.4,0.5,0.5,0.8c0.3,0.5,0.5,1,0.7,1.5c0.4,1.2,0.7,2.5,0.7,3.9v12.3c0.2,0,0.3,0.1,0.4,0.1c0.1,0,0.3,0.1,0.4,0.1
		c0,0,0,0,0.1,0C56.4,66.1,57.2,67.3,57.2,68.7z"/>
	<g>
		<path fill="#65B6E5" d="M55.2,52.9v13.7h-1.5V52.9c0-1.4-0.3-2.7-0.7-3.8c-0.4-0.9-0.9-1.7-1.5-2.3c0.3-0.1,0.6-0.2,1-0.2
			c0.2,0,0.3,0,0.5,0.1c0,0,0,0,0,0c0.2,0,0.3,0.1,0.5,0.2c0,0,0,0,0,0c0.2,0.3,0.4,0.6,0.6,1v0c0,0.1,0.1,0.2,0.2,0.3
			c0.1,0.1,0.1,0.2,0.2,0.3c0.1,0.2,0.1,0.3,0.2,0.4c0.1,0.2,0.1,0.3,0.2,0.5c0.2,0.5,0.3,1.1,0.4,1.7
			C55.1,51.7,55.2,52.3,55.2,52.9z"/>
		<circle fill="#484848" cx="54.4" cy="68.7" r="3.6"/>
		<path opacity="0.2" fill="#FFFFFF" d="M57.8,69c0-2-1.6-3.6-3.6-3.6c-1,0-1.8,0.4-2.5,1c0.7-0.7,1.6-1.2,2.7-1.2
			c2,0,3.6,1.6,3.6,3.6c0,1-0.4,1.9-1.1,2.6C57.4,70.7,57.8,69.9,57.8,69z"/>
		<rect x="53.7" y="62.7" fill="#B2B2B2" width="1.5" height="4.5"/>
		<path opacity="0.3" fill="#FFFFFF" d="M55.2,52.9v13.7h-0.4V52.9c0-1.5-0.3-2.9-0.8-4.1c-0.3-0.8-0.7-1.5-1.1-2.1
			c0.2,0,0.3,0.1,0.5,0.2c0.2,0.3,0.4,0.7,0.6,1c0,0,0,0,0,0c0.1,0.2,0.2,0.4,0.3,0.6c0.1,0.3,0.2,0.6,0.3,0.9
			c0.2,0.5,0.3,1.1,0.4,1.7C55.1,51.7,55.2,52.3,55.2,52.9z"/>
		<path opacity="0.2" fill="#010101" d="M53.7,66.3v0.9h1.5v-0.9c-0.2-0.1-0.5-0.1-0.7-0.1C54.2,66.2,53.9,66.3,53.7,66.3z"/>
		<circle fill="#B2B2B2" cx="54.4" cy="68.7" r="2.2"/>
		<path opacity="0.3" fill="#FFFFFF" d="M56,69.6c0-1.2-1-2.2-2.2-2.2c-0.2,0-0.5,0-0.7,0.1c0.3-0.4,0.9-0.7,1.5-0.7
			c1,0,1.9,0.8,1.9,1.9c0,0.5-0.2,0.9-0.4,1.2C55.9,69.7,56,69.7,56,69.6z"/>
	</g>
	<g>
		<path opacity="0.3" fill="#010101" d="M36.4,76.4c-10-4.1-16.6-11.6-19.1-15.8c1.5-0.9,4.6-2.4,4.6-2.4s-3-1.2-4.6-1.5
			c0.2-2.2,2.2-6.4,5.1-9.5l0,0l0.3-0.1l2-0.4l0.1,0.1v0l0.9,1.8L26,49l0.4,0.7c0,0.2,0,0.4-0.1,0.6c0,0,0,0,0,0
			c-0.2,1.5-0.2,3.1,0.1,4.9c0.1,0.9,0.3,1.8,0.6,2.7c0.1,0.4,0.3,0.8,0.4,1.2c2.5,7.2,7,14.6,8.8,17.1
			C36.3,76.3,36.4,76.4,36.4,76.4z"/>
		<path fill="#D0D1D1" d="M36.4,76.4c-10-4.5-15.6-11.6-18-15.8c1.5-0.9,4.6-2.4,4.6-2.4s-3-1.2-4.6-1.5c0.2-2.2,1.8-6.5,4.4-9.6v0
			c1.3-1.6,2.9-2.8,4.7-3.4c0,0,0,0,0,0.1c-0.2,0.7-0.3,1.4-0.4,2.1c-0.3,2-0.5,4-0.3,6.1c0,0,0,0,0,0c0.2,1.9,0.6,3.9,1.2,6.1
			c0.1,0.4,0.2,0.7,0.3,1c0.1,0.3,0.2,0.7,0.3,1c2.4,6.9,5.8,13.8,7.5,16.3C36.3,76.3,36.4,76.4,36.4,76.4z"/>
	</g>
	<g>
		<path opacity="0.3" fill="#010101" d="M50.9,58.3c0.8,0.4,3,1.5,4.3,2.3c-0.9,1.6-2.3,3.6-4.3,5.7c-0.6,0.6-1.2,1.3-1.9,1.9
			c-2.5,2.4-5.6,4.8-9.3,6.7c-1.1,0.6-2.2,1.1-3.3,1.5c0.1-0.1,0.1-0.2,0.2-0.2c0.7-0.9,1.7-2.5,2.8-4.5c0,0,0,0,0,0
			c1.9-3.4,4.2-8.1,5.8-12.6c0.1-0.4,0.3-0.8,0.4-1.2c0.3-0.9,0.5-1.8,0.6-2.7v0c0.1-0.7,0.2-1.3,0.2-2c0.1-1.2,0-2.4-0.2-3.5
			l0.3-0.7h0l0-0.1l0.2-0.4v0l0.1-0.1l0.9-1.8l2,0.4l0.3,0.1c1.1,1.2,2.2,2.6,3,4c1.3,2.1,2.1,4.2,2.2,5.5c-1.3,0.2-3.5,1.1-4.3,1.4
			c-0.2,0.1-0.3,0.1-0.3,0.1S50.8,58.3,50.9,58.3z"/>
		<path fill="#D0D1D1" d="M50.9,58.9c1,0.5,2.4,1.2,3.2,1.7c-0.8,1.4-1.8,3-3.2,4.7c-0.6,0.7-1.2,1.4-1.9,2.2
			c-2.3,2.5-5.4,5.1-9.3,7.3c-1,0.6-2.1,1.1-3.3,1.7c0.1-0.1,0.1-0.2,0.2-0.2c0.5-0.8,1.2-2,2-3.5c0.1-0.2,0.2-0.5,0.4-0.7
			c0.1-0.3,0.3-0.5,0.4-0.8c0,0,0,0,0,0c0.9-2,2-4.4,2.9-6.9c0.2-0.5,0.3-0.9,0.5-1.4c0.4-1,0.7-2,1.1-3c0.1-0.2,0.2-0.5,0.2-0.7
			c0-0.1,0.1-0.2,0.1-0.3v0c0.1-0.4,0.2-0.7,0.3-1c0.2-0.6,0.4-1.2,0.5-1.8c0.1-0.2,0.1-0.5,0.2-0.7c0.1-0.2,0.1-0.5,0.2-0.7
			c0-0.2,0.1-0.5,0.1-0.7c0-0.2,0.1-0.5,0.1-0.7c0.1-0.4,0.1-0.8,0.1-1.2c0-0.4,0.1-0.7,0.1-1.1c0-0.5,0-1,0-1.4c0-1-0.1-2-0.2-2.9
			v0c0-0.3-0.1-0.6-0.1-0.9c-0.1-0.7-0.2-1.4-0.4-2.1v0c0,0,0,0,0,0c1.8,0.6,3.4,1.9,4.7,3.4c1.1,1.3,2,2.9,2.8,4.3
			c1,2,1.5,4,1.7,5.3c-0.9,0.2-2.2,0.6-3.2,1c-0.8,0.3-1.3,0.5-1.3,0.5S50.2,58.5,50.9,58.9z"/>
	</g>
	<g>
		<path fill="#DBF0F5" d="M55.9,75.5H43.6c-0.3,0-0.6,0.3-0.6,0.6v7.3c0,0.3,0.3,0.6,0.6,0.6h12.3c0.3,0,0.6-0.3,0.6-0.6v-7.3
			C56.4,75.7,56.2,75.5,55.9,75.5z M51,76.9h-2.6v-0.8H51V76.9z"/>
		<path fill="#797980" d="M55.9,84.2H43.6c-0.4,0-0.8-0.4-0.8-0.8v-7.3c0-0.4,0.4-0.8,0.8-0.8h12.3c0.4,0,0.8,0.4,0.8,0.8v7.3
			C56.6,83.8,56.3,84.2,55.9,84.2z M43.6,75.7c-0.2,0-0.4,0.2-0.4,0.4v7.3c0,0.2,0.2,0.4,0.4,0.4h12.3c0.2,0,0.4-0.2,0.4-0.4v-7.3
			c0-0.2-0.2-0.4-0.4-0.4H43.6z"/>
		<g>
			<rect x="51" y="77.8" fill="#F04D23" width="4.2" height="0.8"/>
			<rect x="49.7" y="79.5" fill="#A1A0A8" width="5.5" height="0.6"/>
			<rect x="49.7" y="81" fill="#A1A0A8" width="5.5" height="0.6"/>
			<rect x="49.7" y="82.5" fill="#A1A0A8" width="5.5" height="0.6"/>
		</g>
		<g>
			<rect x="44.3" y="77.8" fill="#75B9D5" width="4.4" height="5.5"/>
		</g>
		<polygon opacity="0.3" fill="#010101" points="50.6,76.5 51.1,75.3 50.6,75.3 		"/>
		<polygon fill="#509EC9" points="50.6,76.5 48.9,76.5 48.3,72.3 51.1,72.3 		"/>
		<g>
			<rect x="49.7" y="77.8" fill="#F04D23" width="1.3" height="1.3"/>
			<rect x="50.2" y="78" fill="#FFFFFF" width="0.3" height="0.9"/>
			<rect x="49.9" y="78.3" fill="#FFFFFF" width="0.9" height="0.3"/>
		</g>
	</g>
</g>
</svg>
