<?xml version="1.0" encoding="UTF-8" standalone="no"?> <svg id="Layer_1" data-name="Layer 1" xmlns="http://www.w3.org/2000/svg" viewBox="0 0 128 128"><defs><style>.cls-1{fill:#3b4551;}</style></defs><title>a</title><path class="cls-1" d="M123.623,102.81192c-1.80056-6.60253-5.10795-10.22105-11.7037-12.25617-6.00814-2.01448-24.54409-8.52705-29.90514-10.61182-3.63094,6.77147-8.958,13.3453-18.01411,19.48483-9.05631-6.13953-14.38334-12.71336-18.01427-19.48483-5.361,2.08477-23.897,8.59734-29.90514,10.61182C9.48491,92.59087,6.17752,96.2094,4.377,102.81192c-2.03705,7.46984-2.40139,15.43717-2.40139,23.14253H126.02442C126.02442,118.24909,125.66009,110.28176,123.623,102.81192Zm-13.62371,9.71114h-17.147a2.85785,2.85785,0,0,1,0-5.71571h17.147a2.85785,2.85785,0,0,1,0,5.71571Z"/><path class="cls-1" d="M47.16941,64.67007l.00532-.00064.00048.00064a25.78338,25.78338,0,0,0,2.49811,2.73009c.01886.0216.03917.0482.058.06964.02644,0,.02644.02628.05288.02628a21.15871,21.15871,0,0,0,14.21,5.46744l.0029-.00016.00193.00016.0029-.00016.0029.00016a21.15933,21.15933,0,0,0,14.211-5.46744c.02644,0,.02644-.02628.05288-.02628.01886-.02144.03917-.048.058-.06964a25.78338,25.78338,0,0,0,2.49811-2.73009l.00048-.00064.00339.00064c3.96384.79235,16.5363,1.21488,21.9773-3.196.81879-.66032-10.85557-41.09813-15.31932-48.73143A20.1041,20.1041,0,0,0,80.69872,5.7961C75.94447,2.89077,70.26568,2.04554,64.772,2.04554h-.52829c-.07851.00226-.16427.00806-.24359.01064-.07932-.00258-.16508-.00838-.24359-.01064h-.52829c-5.49372,0-11.17251.84523-15.92676,3.75056a20.1041,20.1041,0,0,0-6.78808,6.94655C36.04961,20.376,24.37525,60.81376,25.194,61.47408,30.635,65.885,43.20751,65.46242,47.16941,64.67007Z"/></svg>