<?xml version="1.0" encoding="utf-8"?>
<!-- Generator: Adobe Illustrator 18.0.0, SVG Export Plug-In . SVG Version: 6.00 Build 0)  -->
<!DOCTYPE svg PUBLIC "-//W3C//DTD SVG 1.1//EN" "http://www.w3.org/Graphics/SVG/1.1/DTD/svg11.dtd">
<svg version="1.1" id="Layer_1" xmlns="http://www.w3.org/2000/svg" xmlns:xlink="http://www.w3.org/1999/xlink" x="0px" y="0px"
	 viewBox="0 0 70.3 89.1" enable-background="new 0 0 70.3 89.1" xml:space="preserve">
<g>
	<path fill="#805125" d="M50.4,51.8c-8.7,2.5-17.9,2.5-26.6,0c-2.8-0.8-4.8-4.1-4.7-7c0.3-5.6,2.2-11.2,2.5-16.9
		c11.4,0,19.7-0.2,31.1-0.2c0.3,5.7,2.1,11.6,2.4,17.1C55.2,47.7,53.2,51,50.4,51.8z"/>
	<path fill="#FDD0AF" d="M47.7,55.7c-2.7-0.6-4.9-2.3-4.9-3.8v-3.4c0-0.9,0-1.7,0-1.7H31.4v5.1c0,1.5-2.2,3.2-4.9,3.8
		c-0.6,0.1,5,4.3,10.6,4.3C42.4,60,47.7,55.7,47.7,55.7z"/>
	<polygon fill="#FDD0AF" points="26.5,55.7 18.4,57.8 37.1,78.7 55.8,57.8 47.7,55.7 	"/>
	<path fill="#805125" d="M21.6,27.8c0-11.8,6-19.4,15.5-19.4c9.5,0,15.6,7.4,15.6,19.2c0,11.8-6.1,9.1-15.6,9.1
		C27.7,36.7,21.6,39.7,21.6,27.8z"/>
	<path opacity="0.3" fill="#010101" d="M42.8,46.8c0,0,0,0.7,0,1.7c-2,1.7-4,2.7-5.7,2.7c-1.6,0-3.7-1.1-5.7-2.9v-1.6H42.8z"/>
	<g>
		<path fill="#FDD0AF" d="M48.9,29.5c0.4-0.9,0.5-1.6,1.1-1.7c1-0.1-0.6,8.7-1.8,9.5C47.8,36.1,48.9,29.5,48.9,29.5z"/>
		<path fill="#FDD0AF" d="M25.3,29.5c-0.4-0.9-0.5-1.6-1.1-1.7c-1.1-0.1,0.6,8.7,1.8,9.5C26.4,36.1,25.3,29.5,25.3,29.5z"/>
	</g>
	<path fill="#FDD0AF" d="M48.9,31.6c-0.2,1.6-0.4,3.3-0.7,4.8c-0.5,2.7-1,5-1.4,6.2c-1.4,3.5-6.9,7.5-9.6,7.5c0,0-0.1,0-0.1,0
		c-2.8-0.1-8.2-4-9.6-7.5c-0.5-1.2-1-3.6-1.4-6.3c0,0,0,0,0-0.1c-0.8-5-1.5-11.1-1.3-12.7C25,20.9,25.3,13.1,37,13.1h0.1
		c11.8,0,12.2,7.8,12.4,10.3C49.7,24.5,49.4,27.9,48.9,31.6z"/>
	<path fill="#805125" d="M50.4,26.5v-9.9c-1.2-1-3.5-3.9-4.8-4.6h-17c-0.6,0.3-1.3,0.9-2,1.7c1.3,3.9,4.6,7,9,9.2
		c0.2,0.2,0.5,0.3,0.7,0.4c2.8,1.3,5.9,2.2,9.2,2.8L50.4,26.5z"/>
	<path fill="#805125" d="M29.7,12.6c7.7-0.3,0.9,10.7-5.3,14.6C19.7,21.9,24.1,12.9,29.7,12.6z"/>
	<path fill="#90D4D3" d="M63.3,83.5H10.9c0.4-5.5,1.2-19.3,1.6-20.4c0.8-2.2,2.9-4,5.1-4.9c4.2-1.8,8.9-3.4,13.4-4.8
		c0.2,0.8,6.2,11,6.2,11s6.1-10.2,6.3-11c2.9,0.9,5.7,2.3,8.6,3.2c3.7,1.2,9,2.6,9.9,7.1l0,0.1c0,0.1,0,0.1,0,0.1
		C62.4,66.7,63,79.3,63.3,83.5z"/>
	<path fill="#B6E2E4" d="M37.1,65.4l-0.4-0.7c-1-1.7-6-10.3-6.2-11.1l0.8-0.7c0.2,0.6,3.6,6.7,5.9,10.6c2.3-3.9,5.8-9.9,6-10.5
		l0.8,0.6c-0.2,0.8-4.9,8.7-6.4,11.1L37.1,65.4z"/>
	<g>
		<path fill="#F1F0F0" d="M47.6,32.8c0.2-0.9,0.6-1.8,1-2.7c0.4-0.8,0.8-1.7,1.4-2.4c-0.2,0.9-0.6,1.8-1,2.7
			C48.6,31.2,48.2,32,47.6,32.8z"/>
		<path fill="#D0D1D1" d="M47.6,32.7l-1.3,9.9c-1.6,2.5-5.1,6.1-9.2,6.1v-16c1.5,0,4.2,1.8,5.6,1.6C44,34.1,46.7,33.3,47.6,32.7z"/>
		<path fill="#E1E1E1" d="M37.1,32.7v16c-4.1,0-7.6-3.6-9.2-6.1l-1.3-9.9c0.9,0.6,3.6,1.3,4.9,1.6C32.9,34.5,35.6,32.7,37.1,32.7z"
			/>
		<path fill="#F1F0F0" d="M37.1,49c-4.3,0-7.9-3.9-9.4-6.2l0-0.1l-1.4-10.5l0.4,0.3c0.8,0.5,3.5,1.3,4.9,1.5
			c0.7,0.1,1.7-0.3,2.8-0.8c1-0.4,2-0.8,2.7-0.8c0.7,0,1.7,0.4,2.7,0.8c1,0.4,2.1,0.9,2.8,0.8c1.3-0.2,4-1,4.8-1.5l0.5-0.3
			l-1.4,10.6C45,45.1,41.4,49,37.1,49z M28.2,42.6c1.4,2.2,4.9,5.9,8.9,5.9c4.1,0,7.5-3.7,8.9-5.9l1.3-9.4c-1.2,0.5-3.4,1.2-4.6,1.4
			c-0.8,0.1-1.9-0.3-3.1-0.8c-0.9-0.4-1.9-0.8-2.5-0.8c-0.6,0-1.6,0.4-2.5,0.8c-1.1,0.5-2.3,0.9-3.1,0.8c-1.2-0.2-3.4-0.8-4.6-1.4
			L28.2,42.6z"/>
		<path fill="#F1F0F0" d="M48.1,36.9c-0.2,1-0.5,2-0.8,2.9c-0.3,1-0.6,1.9-1,2.9c0.2-1,0.5-2,0.8-2.9C47.4,38.8,47.7,37.8,48.1,36.9
			z"/>
		<path fill="#F1F0F0" d="M26.6,32.8c-0.6-0.8-1-1.6-1.4-2.4c-0.4-0.9-0.7-1.7-1-2.7c0.6,0.8,1,1.6,1.4,2.4
			C26,31,26.4,31.8,26.6,32.8z"/>
		<path fill="#F1F0F0" d="M26.1,36.9c0.4,0.9,0.7,1.9,1,2.9c0.3,1,0.6,1.9,0.8,2.9c-0.4-0.9-0.7-1.9-1-2.9
			C26.6,38.8,26.3,37.9,26.1,36.9z"/>
	</g>
	<path fill="#90D4D3" d="M22,22.8c0.1-5.3,0.2-8.6,0.3-13.9c0-1.7,1.3-3.3,3-3.6c7.8-1.5,15.8-1.5,23.7,0c1.6,0.3,3,2,3,3.6
		c0.1,5.3,0.3,8.6,0.4,13.9C42.4,20.4,32,20.4,22,22.8z"/>
	<path opacity="0.3" fill="#FFFFFF" d="M25.8,11.9c0.4-1.3,1.5-3.7,3.3-4.1c7-1.3,14.1-1.6,21.1-0.8c-0.5-0.7-1.2-1.2-2-1.3
		c-7.4-1.4-15-1.4-22.4,0c-1.6,0.3-2.8,1.9-2.8,3.4c-0.1,5-0.2,8.1-0.3,13.1C23.8,22,25.1,14.4,25.8,11.9z"/>
	<polygon opacity="0.2" fill="#010101" points="54.9,83.5 53.5,83.5 53.3,75.4 	"/>
	<polygon opacity="0.2" fill="#010101" points="20.9,75.4 20.6,83.5 19.3,83.5 	"/>
</g>
</svg>
