<?xml version="1.0" encoding="utf-8"?>
<!-- Generator: Adobe Illustrator 18.0.0, SVG Export Plug-In . SVG Version: 6.00 Build 0)  -->
<!DOCTYPE svg PUBLIC "-//W3C//DTD SVG 1.1//EN" "http://www.w3.org/Graphics/SVG/1.1/DTD/svg11.dtd">
<svg version="1.1" id="Layer_1" xmlns="http://www.w3.org/2000/svg" xmlns:xlink="http://www.w3.org/1999/xlink" x="0px" y="0px"
	 viewBox="0 0 28 33.5" enable-background="new 0 0 28 33.5" xml:space="preserve">
<g>
	<path fill="none" d="M23.2,14.3v-0.6c0-0.4-0.3-0.7-0.7-0.8c0,0.3,0,0.6,0,0.9c0,0.1,0,0.2,0,0.3c0,0.3,0,0.6-0.1,1
		C22.9,15,23.2,14.7,23.2,14.3z"/>
	<path fill="none" d="M8.8,21.3c0.2,0,0.4,0,0.6,0C9.2,21.3,9,21.3,8.8,21.3z"/>
	<path fill="none" d="M18.3,10c0,0-8.1,1.9-11.1,2.1c-0.1,0-0.2,0-0.2,0c-0.1,0.3-0.2,0.7-0.3,1c-0.1,0.3-0.1,0.7-0.1,1
		c0,0.2,0,0.5,0,0.7c0,0.4,0.1,0.8,0.3,1.2c0.9,2.9,3.7,5,7,5s6.1-2.1,7-5c0.1-0.4,0.2-0.8,0.3-1.2c0-0.2,0-0.5,0-0.7
		c0-0.4,0-0.7-0.1-1c0-0.2-0.1-0.3-0.1-0.5C20.1,11.9,18.8,10.8,18.3,10z"/>
	<path fill="none" d="M5.6,12.8c-0.4,0.1-0.8,0.4-0.8,0.8v0.6c0,0.4,0.3,0.7,0.7,0.8c0-0.3-0.1-0.6-0.1-1c0-0.3,0-0.6,0.1-0.9
		C5.5,13.1,5.5,13.1,5.6,12.8z"/>
	<path fill="#616E7D" d="M1.9,28.6v3.6H26v-3.6c0-1.9-0.7-3.6-1.9-4.9c0.8-0.3,1.3-0.6,1.3-0.7c0.1,0,0.1-0.1,0.1-0.2
		c0-0.1-0.1-0.1-0.1-0.2c0,0-2-1-2.5-2.2c0.7,0.6,1.5,0.9,2.6,1.1c0.1,0,0.2,0,0.2-0.1c0.1-0.1,0.1-0.1,0-0.2
		c-0.7-1.6-1.5-3.7-2-5.6c0.1-0.1,0.2-0.2,0.3-0.3c0.2-0.3,0.3-0.7,0.3-1.1v-0.6c0-0.5-0.2-1-0.6-1.4c-0.1-5.8-4.5-10.4-9.9-10.4
		c-2,0-3.8,0.6-5.3,1.7C8,3.8,7.5,4.2,7.1,4.8C5.2,6.7,4,9.4,4,12.4l0,0c-0.3,0.3-0.4,0.8-0.4,1.2v0.6c0,0.7,0.3,1.2,0.9,1.6
		c0.2,2.2,0.6,4.6,1.1,6.4C3.4,23.6,1.9,25.9,1.9,28.6z M18.8,22.9c-0.1,0.2-2.6,2.5-2.6,2.5l1.7,1.6L14,31.2L10.1,27l1.7-1.6
		c0,0-2.5-2.3-2.6-2.5c-0.2-0.3,1.5-1.5,1.5-1.5l3.3,9.8l3.3-9.8C17.3,21.4,19,22.6,18.8,22.9z M8.8,21.3c0.2,0,0.4,0,0.6,0
		C9.2,21.3,9,21.3,8.8,21.3z M11.8,23.9l4.3,0L14,30.2l-0.1,0L11.8,23.9z M22.5,13.8c0-0.3,0-0.6,0-0.9c0.4,0.1,0.7,0.4,0.7,0.8v0.6
		c0,0.4-0.3,0.7-0.7,0.8c0-0.3,0.1-0.6,0.1-1C22.5,14,22.5,13.9,22.5,13.8z M6.8,13.1c0.1-0.3,0.1-0.7,0.3-1c0.1,0,0.2,0,0.2,0
		c3-0.2,11.1-2.1,11.1-2.1c0.5,0.9,1.8,1.9,2.8,2.6c0,0.2,0.1,0.3,0.1,0.5c0.1,0.3,0.1,0.7,0.1,1c0,0.3,0,0.5,0,0.7
		c0,0.4-0.1,0.8-0.3,1.2c-0.9,2.9-3.7,5-7,5s-6.1-2.1-7-5c-0.1-0.4-0.2-0.8-0.3-1.2c0-0.2,0-0.5,0-0.7C6.7,13.8,6.7,13.4,6.8,13.1z
		 M5.5,13.2c0,0.3-0.1,0.6-0.1,0.9c0,0.3,0,0.6,0.1,1c-0.4-0.1-0.7-0.4-0.7-0.8v-0.6c0-0.4,0.4-0.7,0.8-0.8
		C5.5,13.1,5.5,13.1,5.5,13.2z"/>
	<polygon fill="#AAD3C7" points="14,30.2 16.2,23.8 11.8,23.9 13.9,30.2 	"/>
	<path fill="#FFFFFF" d="M18.8,22.9c0.2-0.3-1.5-1.5-1.5-1.5L14,31.2l3.9-4.2l-1.7-1.6C16.2,25.4,18.7,23.1,18.8,22.9z"/>
	<path fill="#FFFFFF" d="M14,31.2l-3.3-9.8c0,0-1.7,1.2-1.5,1.5c0.1,0.2,2.6,2.5,2.6,2.5L10.1,27L14,31.2z"/>
</g>
</svg>
