<?xml version="1.0" encoding="iso-8859-1"?>
<!-- Generator: Adobe Illustrator 21.1.0, SVG Export Plug-In . SVG Version: 6.00 Build 0)  -->
<svg version="1.1" id="Layer_1" xmlns="http://www.w3.org/2000/svg" xmlns:xlink="http://www.w3.org/1999/xlink" x="0px" y="0px"
	 viewBox="0 0 99.313 99.313" style="enable-background:new 0 0 99.313 99.313;" xml:space="preserve">
<g>
	<path d="M42.86,41.255c9.294,0,16.854-7.56,16.854-16.853c0-9.291-7.561-16.85-16.854-16.85c-9.29,0-16.848,7.559-16.848,16.85
		C26.012,33.695,33.57,41.255,42.86,41.255z M42.86,10.553c7.64,0,13.854,6.213,13.854,13.85c0,7.639-6.215,13.853-13.854,13.853
		c-7.636,0-13.848-6.214-13.848-13.853C29.012,16.766,35.224,10.553,42.86,10.553z"/>
	<path d="M88.399,71.983h-4.484V48.956c0-0.384-0.146-0.752-0.411-1.031l-3.673-3.88c1.151-2.315,0.642-5.202-1.416-6.943
		l-4.09-3.461c-1.173-0.991-2.66-1.466-4.188-1.34c-1.531,0.127-2.921,0.843-3.913,2.016c-2.045,2.418-1.742,6.052,0.676,8.099
		l4.089,3.463c1.078,0.911,2.396,1.356,3.709,1.356c1.1,0,2.192-0.321,3.137-0.935l3.08,3.254v22.431H72.39
		c-0.391-15.688-13.266-28.333-29.047-28.333c-15.779,0-28.652,12.645-29.043,28.333h-3.736c-0.829,0-1.5,0.672-1.5,1.5v16.427
		c0,0.829,0.671,1.5,1.5,1.5h77.835c0.828,0,1.5-0.671,1.5-1.5V73.485C89.899,72.655,89.227,71.983,88.399,71.983z M72.927,43.587
		l-4.089-3.463c-1.156-0.979-1.301-2.716-0.323-3.872c0.474-0.561,1.138-0.903,1.87-0.963c0.077-0.006,0.154-0.009,0.231-0.009
		c0.648,0,1.271,0.227,1.771,0.65l4.09,3.461l0,0c1.155,0.978,1.3,2.716,0.321,3.873C75.822,44.419,74.082,44.564,72.927,43.587z
		 M43.343,46.649C57.47,46.649,69,57.948,69.39,71.982H17.3C17.689,57.949,29.218,46.649,43.343,46.649z M86.899,88.41H12.064
		V74.983h74.835V88.41z"/>
</g>
</svg>
