<?xml version="1.0" encoding="utf-8"?>
<!-- Generator: Adobe Illustrator 18.0.0, SVG Export Plug-In . SVG Version: 6.00 Build 0)  -->
<!DOCTYPE svg PUBLIC "-//W3C//DTD SVG 1.1//EN" "http://www.w3.org/Graphics/SVG/1.1/DTD/svg11.dtd">
<svg version="1.1" id="Layer_1" xmlns="http://www.w3.org/2000/svg" xmlns:xlink="http://www.w3.org/1999/xlink" x="0px" y="0px"
	 viewBox="0 0 57.4 57" enable-background="new 0 0 57.4 57" xml:space="preserve">
<g>
	
		<path fill="none" stroke="#111B44" stroke-width="1.3469" stroke-linecap="round" stroke-linejoin="round" stroke-miterlimit="10" d="
		M6.4,4.1L3.9,8.3c0,0-9.6,13.2,11,34l0,0c0,0,0.1,0.1,0.1,0.1c0,0,0.1,0.1,0.1,0.1l0,0c20.8,20.6,34,11,34,11l4.2-2.5
		c2.4-1.8,2.6-5.3,0.5-7.4l-5-5c-1.7-1.7-4.5-1.9-6.4-0.5l-5.3,3.4c0,0-3.5,2.1-13.5-7.8c-9.9-9.9-7.8-13.5-7.8-13.5l3.4-5.3
		c1.5-2,1.3-4.7-0.5-6.4l-5-5C11.7,1.5,8.2,1.7,6.4,4.1z"/>
	<g>
		
			<path fill="none" stroke="#111B44" stroke-width="1.3469" stroke-linecap="round" stroke-linejoin="round" stroke-miterlimit="10" d="
			M31.5,15c3.1-3.1,8.1-3.1,11.2,0c3.1,3.1,3.1,8.1,0,11.2"/>
		
			<path fill="none" stroke="#111B44" stroke-width="1.3469" stroke-linecap="round" stroke-linejoin="round" stroke-miterlimit="10" d="
			M28,11.4c5.1-5.1,13.2-5.1,18.3,0s5.1,13.2,0,18.3"/>
		
			<path fill="none" stroke="#111B44" stroke-width="1.3469" stroke-linecap="round" stroke-linejoin="round" stroke-miterlimit="10" d="
			M24.4,7.8c7.1-7.1,18.5-7.1,25.5,0c7.1,7.1,7.1,18.5,0,25.5"/>
	</g>
</g>
</svg>
