<?xml version="1.0" encoding="utf-8"?>
<!-- Generator: Adobe Illustrator 18.0.0, SVG Export Plug-In . SVG Version: 6.00 Build 0)  -->
<!DOCTYPE svg PUBLIC "-//W3C//DTD SVG 1.1//EN" "http://www.w3.org/Graphics/SVG/1.1/DTD/svg11.dtd">
<svg version="1.1" id="Layer_1" xmlns="http://www.w3.org/2000/svg" xmlns:xlink="http://www.w3.org/1999/xlink" x="0px" y="0px"
	 viewBox="0 0 68.5 69.4" enable-background="new 0 0 68.5 69.4" xml:space="preserve">
<g>
	<path fill="#4E4F50" d="M2.5,49.5h6.3c0.6,0,1,0.5,1,1v8.9h49.1v-8.9c0-0.6,0.5-1,1-1h6.3c0.6,0,1,0.5,1,1v16.2c0,0.6-0.5,1-1,1
		H2.5c-0.6,0-1-0.5-1-1V50.5C1.5,49.9,1.9,49.5,2.5,49.5z"/>
	<path fill="#4E4F50" d="M24.5,45h19.7c0.7,0,1.2,0.5,1.2,1.2v5.3c0,0.7-0.5,1.2-1.2,1.2H24.5c-0.7,0-1.2-0.5-1.2-1.2v-5.3
		C23.3,45.6,23.9,45,24.5,45z"/>
	<path fill="#4E4F50" d="M20.9,15.3L32.3,2c0.9-1.1,3.2-1.1,4.1,0l11.4,13.4l11.4,13.4c0.9,1.1-0.2,2.4-2,2.4H45.2v11
		c0,0.6-0.5,1-1,1h-20c-0.6,0-1-0.5-1-1v-11H11.6c-1.8,0-3-1.3-2-2.4L20.9,15.3z"/>
</g>
</svg>
